<?xml version="1.0" encoding="UTF-8" standalone="no"?>
<!-- Created with Inkscape (http://www.inkscape.org/) -->

<svg
   width="70.669861mm"
   height="47.607906mm"
   viewBox="0 0 70.669861 47.607906"
   version="1.1"
   id="svg5"
   xml:space="preserve"
   xmlns:inkscape="http://www.inkscape.org/namespaces/inkscape"
   xmlns:sodipodi="http://sodipodi.sourceforge.net/DTD/sodipodi-0.dtd"
   xmlns="http://www.w3.org/2000/svg"
   xmlns:svg="http://www.w3.org/2000/svg"><sodipodi:namedview
     id="namedview7"
     pagecolor="#505050"
     bordercolor="#ffffff"
     borderopacity="1"
     inkscape:showpageshadow="0"
     inkscape:pageopacity="0"
     inkscape:pagecheckerboard="1"
     inkscape:deskcolor="#505050"
     inkscape:document-units="mm"
     showgrid="false" /><defs
     id="defs2" /><g
     inkscape:label="Camada 1"
     inkscape:groupmode="layer"
     id="layer1"
     transform="translate(-435.83247,109.15725)"><path
       d="m 449.51212,-61.919555 c -2.35892,-0.84144 -4.35354,-2.82019 -4.99246,-4.95274 l -0.3043,-1.01564 h -2.43004 c -3.05029,0 -4.40863,-0.60263 -5.3436,-2.37067 l -0.60926,-1.15214 0.002,-16.825577 c 7.9e-4,-10.225966 0.10366,-17.193408 0.26199,-17.763348 0.29555,-1.06384 1.62258,-2.46482 2.73032,-2.88246 0.50148,-0.18906 7.20075,-0.27891 20.50521,-0.275 18.72761,0.005 19.81729,0.0317 20.84942,0.50037 0.59898,0.27201 1.43105,0.94294 1.84904,1.49096 0.64231,0.84211 0.77503,1.29408 0.85707,2.91883 l 0.0971,1.92243 6.38826,0.0866 c 9.38249,0.12721 8.5651,-0.57821 14.5693,12.573511 l 2.56019,5.607891 -0.079,6.742623 c -0.0745,6.36048 -0.11032,6.78492 -0.63245,7.48898 -0.93258,1.25739 -2.16919,1.93699 -3.52468,1.93699 h -1.22169 l -0.46253,1.30229 c -0.54088,1.52288 -2.26842,3.41223 -3.93121,4.29945 -0.98745,0.52687 -1.53711,0.61597 -3.80026,0.61597 -3.03649,0 -4.01283,-0.37092 -5.87318,-2.23127 -0.97975,-0.97976 -2.19661,-3.03996 -2.19661,-3.71897 0,-0.17635 -4.12363,-0.26713 -12.10468,-0.26648 l -12.10469,0.001 -0.515,1.25193 c -0.72539,1.76339 -2.38111,3.45595 -4.2475,4.34201 -1.2885,0.6117 -1.93634,0.75151 -3.43958,0.74225 -1.01865,-0.006 -2.30421,-0.17268 -2.8568,-0.36979 z m 44.81992,-3.09843 c 1.40282,-0.47581 2.318,-1.23182 2.92027,-2.41237 2.39973,-4.70386 -3.42905,-9.4846 -7.44443,-6.105885 -2.76353,2.325365 -2.36767,6.449315 0.77676,8.091985 1.52698,0.7977 2.36968,0.89356 3.7474,0.42627 z m -39.76717,-0.33127 c 2.34721,-1.22125 3.32341,-4.18062 2.1971,-6.66052 -2.11105,-4.648071 -9.255,-2.965314 -9.28204,2.18638 -0.01,1.91173 0.7759,3.27532 2.50774,4.35092 0.96686,0.60049 3.52741,0.66942 4.5772,0.12322 z m -10.07752,-7.0366 c 0.21876,-0.654844 0.51861,-1.339453 0.66633,-1.521354 0.21196,-0.26102 -0.3796,-0.330729 -2.80653,-0.330729 h -3.07511 v 1.103646 c 0,1.748867 0.5073,2.106867 2.85591,2.015437 l 1.96165,-0.0764 z m 35.044,-0.265065 0.0897,-1.587981 -10.10738,5.29e-4 -10.10738,5.29e-4 0.51043,1.124479 c 0.28073,0.618464 0.51303,1.332839 0.51623,1.587499 0.005,0.43227 0.63686,0.46302 9.50731,0.46302 h 9.50149 l 0.0897,-1.58798 z m 5.49494,0.487625 c 0.66139,-2.207551 2.12242,-3.898083 4.35347,-5.037349 1.37118,-0.700182 4.22361,-0.932703 5.85129,-0.476979 2.41517,0.676207 4.68659,2.86221 5.49853,5.291768 0.31461,0.94141 0.53697,1.20763 1.0623,1.27188 1.31043,0.16025 1.50932,-0.60784 1.50932,-5.828669 v -4.703626 h -7.10462 c -6.94581,0 -7.12472,-0.01342 -8.00364,-0.600585 -1.62117,-1.083008 -1.82419,-1.864516 -1.82466,-7.023578 -2.6e-4,-4.448331 0.14847,-5.430475 0.8991,-5.931681 0.16011,-0.106913 2.46401,-0.196209 5.11976,-0.198437 2.65576,-0.0021 4.82865,-0.108117 4.82865,-0.23531 0,-0.487169 -1.39558,-2.699425 -1.85954,-2.947731 -0.27838,-0.148984 -3.04403,-0.260593 -6.45744,-0.260593 h -5.97052 v 13.890624 13.890626 h 0.88416 c 0.80792,0 0.91259,-0.0949 1.21384,-1.10036 z m -34.43744,-5.668943 c 1.63924,-0.370187 2.03817,-0.375108 3.40589,-0.04201 1.20186,0.292709 4.23327,0.391692 13.52157,0.441516 l 11.9724,0.06422 v -13.859917 c 0,-10.427161 -0.0786,-13.938561 -0.3175,-14.177421 -0.45951,-0.4595 -39.12217,-0.4595 -39.58167,0 -0.23885,0.23885 -0.3175,3.74532 -0.3175,14.155206 v 13.837708 h 4.73004 c 3.35946,0 5.26806,-0.121497 6.58677,-0.419302 z m 51.86499,-7.187469 c -0.0537,-0.10914 -0.85587,-1.776015 -1.78252,-3.704166 l -1.68481,-3.505729 h -4.58953 -4.58952 v 3.386666 c 0,2.281296 0.10362,3.490296 0.3175,3.704167 0.35627,0.356277 12.50345,0.473586 12.32888,0.119062 z"
       style="fill:#000000;stroke-width:0.264583"
       id="path518" /></g></svg>
