<?xml version="1.0" encoding="UTF-8" standalone="no"?>
<!-- Created with Inkscape (http://www.inkscape.org/) -->

<svg
   width="64.0896mm"
   height="51.049976mm"
   viewBox="0 0 64.0896 51.049976"
   version="1.1"
   id="svg5"
   xml:space="preserve"
   xmlns:inkscape="http://www.inkscape.org/namespaces/inkscape"
   xmlns:sodipodi="http://sodipodi.sourceforge.net/DTD/sodipodi-0.dtd"
   xmlns="http://www.w3.org/2000/svg"
   xmlns:svg="http://www.w3.org/2000/svg"><sodipodi:namedview
     id="namedview7"
     pagecolor="#505050"
     bordercolor="#ffffff"
     borderopacity="1"
     inkscape:showpageshadow="0"
     inkscape:pageopacity="0"
     inkscape:pagecheckerboard="1"
     inkscape:deskcolor="#505050"
     inkscape:document-units="mm"
     showgrid="false" /><defs
     id="defs2" /><g
     inkscape:label="Camada 1"
     inkscape:groupmode="layer"
     id="layer1"
     transform="translate(-529.64882,89.755498)"><path
       d="m 537.57484,-39.211342 c -2.1539,-0.978493 -3.30056,-2.985942 -3.30355,-5.783448 -10e-4,-1.279961 -0.0876,-1.468204 -1.1666,-2.547229 -1.65507,-1.655064 -1.81842,-2.681332 -1.68409,-10.580645 0.11631,-6.840312 0.24609,-7.604293 1.65421,-9.737705 l 0.6365,-0.964346 -1.18092,-0.177088 c -0.6495,-0.0974 -1.48266,-0.437351 -1.85148,-0.755446 -1.33301,-1.149699 -1.38279,-4.190473 -0.0878,-5.364988 0.46946,-0.425791 1.10059,-0.525796 4.02228,-0.637328 l 3.46545,-0.132292 0.49272,-1.719791 c 1.88009,-6.562189 2.57008,-8.38379 3.63304,-9.591372 0.58687,-0.666725 1.63125,-1.490089 2.32083,-1.829698 l 1.25379,-0.617473 14.65803,-0.08064 c 16.00468,-0.08805 17.48833,0.005 19.19374,1.203596 1.84554,1.297092 2.55703,2.566372 4.38052,7.814658 l 1.71979,4.949836 2.91042,0.0055 c 1.78707,0.0034 3.16572,0.133056 3.57187,0.335997 1.7575,0.878168 2.07482,4.157406 0.53664,5.545674 -0.44473,0.401374 -1.26492,0.798489 -1.83869,0.890239 l -1.03582,0.165634 0.9705,1.75559 0.9705,1.75559 0.0809,7.58832 c 0.0917,8.5959 0.0538,8.792684 -2.03851,10.583603 -0.97631,0.83569 -1.03967,0.973901 -0.9054,1.974994 0.33163,2.472515 -1.14824,5.089078 -3.41239,6.033423 -1.43442,0.598281 -5.31113,0.546243 -6.68923,-0.08979 -2.04123,-0.942075 -3.0427,-2.690556 -3.0427,-5.312248 v -1.595999 h -14.02292 -14.02292 v 1.463707 c 0,2.510782 -1.1845,4.460195 -3.30729,5.443013 -1.47217,0.681591 -5.38884,0.686242 -6.88143,0.0082 z m 6.09971,-3.595574 c 0.5179,-0.517898 0.64943,-0.919805 0.64943,-1.984375 v -1.334942 h -3.30729 -3.30729 v 1.455209 c 0,2.1454 0.46678,2.513541 3.18702,2.513541 1.90732,0 2.19623,-0.06754 2.77813,-0.649433 z m 41.37606,-0.04771 c 0.3841,-0.488304 0.54837,-1.082744 0.54837,-1.984375 v -1.287235 h -3.34006 -3.34005 l 0.12432,1.499164 c 0.17402,2.098407 0.68367,2.469586 3.3909,2.469586 1.91912,0 2.10766,-0.05024 2.61652,-0.69714 z m 2.76164,-6.994981 0.69714,-0.54837 -0.006,-6.926108 c -0.007,-8.132746 -0.005,-8.127553 -2.71344,-10.745673 l -1.73434,-1.676829 -22.23424,-0.08212 -22.23424,-0.08212 -1.59709,1.475928 c -1.00656,0.93019 -1.89183,2.065726 -2.39417,3.071016 l -0.79707,1.595088 v 6.584351 6.584349 l 0.64943,0.64943 0.64943,0.649433 h 25.50864 c 25.40577,0 25.51145,-0.0021 26.20577,-0.54837 z m -45.93195,-4.477578 c -3.06346,-0.922422 -4.64949,-4.064248 -3.53062,-6.993955 0.73006,-1.911638 3.02655,-3.587562 4.91597,-3.587562 1.79083,0 3.98369,1.509091 4.79822,3.302071 1.79558,3.952488 -2.08009,8.515019 -6.18357,7.279446 z m 2.9067,-3.87373 c 0.76396,-0.840335 0.75575,-1.732205 -0.0243,-2.639038 -0.85015,-0.988364 -2.14401,-0.988364 -2.99416,0 -0.72479,0.842616 -0.78793,1.655625 -0.1944,2.503011 0.86061,1.228696 2.16911,1.284097 3.21283,0.136027 z m 33.57225,3.763574 c -2.0375,-0.754179 -3.59657,-2.943445 -3.59657,-5.050353 0,-2.784681 2.63838,-5.415047 5.439,-5.422482 0.87612,-0.0024 2.27496,0.541597 3.24329,1.261121 1.85484,1.378251 2.44482,4.481729 1.27357,6.699434 -1.14547,2.168904 -4.11626,3.342534 -6.35929,2.51228 z m 3.25177,-3.763118 c 0.92367,-1.174242 0.63517,-2.522067 -0.691,-3.228393 -0.89341,-0.475832 -1.38146,-0.373502 -2.22056,0.465598 -0.91294,0.912936 -0.98492,1.796743 -0.22503,2.762795 0.42298,0.537728 0.78159,0.69714 1.5683,0.69714 0.78671,0 1.14532,-0.159412 1.56829,-0.69714 z m -27.61085,-0.776968 c -0.5728,-0.572802 -0.52078,-1.595887 0.11339,-2.230059 0.50333,-0.50333 0.88195,-0.529166 7.75464,-0.529166 7.95991,0 8.20856,0.04652 8.20856,1.535951 0,1.654696 0.078,1.639048 -8.17149,1.639048 -6.4557,0 -7.54671,-0.05738 -7.9051,-0.415774 z m -17.08452,-13.342558 c 0,-0.152683 -0.83264,-0.264583 -1.96876,-0.264583 -1.08282,0 -2.04235,0.119062 -2.13228,0.264583 -0.10385,0.168029 0.61461,0.264583 1.96876,0.264583 1.24513,0 2.13228,-0.110082 2.13228,-0.264583 z m 53.57812,0 c -0.0899,-0.145521 -0.9304,-0.264583 -1.8677,-0.264583 -0.95973,0 -1.70418,0.11558 -1.70418,0.264583 0,0.1514 0.79896,0.264583 1.8677,0.264583 1.17776,0 1.8073,-0.09774 1.70418,-0.264583 z m -7.54063,-0.906492 c 0,-0.409236 -3.79549,-10.967437 -4.12142,-11.464878 -0.22289,-0.340161 -0.78573,-0.850474 -1.25076,-1.134022 -0.81182,-0.494999 -1.44449,-0.515586 -15.87377,-0.516536 -12.39278,-7.94e-4 -15.15353,0.0642 -15.7427,0.370748 -1.54987,0.806391 -1.93448,1.566968 -3.52072,6.962291 -0.8463,2.878524 -1.54337,5.382509 -1.54905,5.56441 -0.008,0.261898 4.36743,0.330729 21.02405,0.330729 11.56891,0 21.03437,-0.05073 21.03437,-0.112742 z"
       style="fill:#000000;stroke-width:0.264583"
       id="path441" /></g></svg>
