<?xml version="1.0" encoding="UTF-8" standalone="no"?>
<!-- Created with Inkscape (http://www.inkscape.org/) -->

<svg
   width="76.765961mm"
   height="46.1754mm"
   viewBox="0 0 76.765961 46.1754"
   version="1.1"
   id="svg5"
   xml:space="preserve"
   xmlns:inkscape="http://www.inkscape.org/namespaces/inkscape"
   xmlns:sodipodi="http://sodipodi.sourceforge.net/DTD/sodipodi-0.dtd"
   xmlns="http://www.w3.org/2000/svg"
   xmlns:svg="http://www.w3.org/2000/svg"><sodipodi:namedview
     id="namedview7"
     pagecolor="#505050"
     bordercolor="#ffffff"
     borderopacity="1"
     inkscape:showpageshadow="0"
     inkscape:pageopacity="0"
     inkscape:pagecheckerboard="1"
     inkscape:deskcolor="#505050"
     inkscape:document-units="mm"
     showgrid="false" /><defs
     id="defs2" /><g
     inkscape:label="Camada 1"
     inkscape:groupmode="layer"
     id="layer1"
     transform="translate(-330.61912,156.72161)"><path
       d="m 342.54472,-110.81553 c -5.66557,-1.2835 -10.26419,-5.69028 -11.52695,-11.04607 -0.80644,-3.42042 -0.38714,-6.89313 1.23824,-10.25532 1.15663,-2.39256 4.23305,-5.44809 6.63277,-6.58774 1.91463,-0.90929 4.69569,-1.60516 6.41502,-1.60516 1.00122,0 4.03493,0.55575 4.89479,0.89669 0.29538,0.11712 0.95742,-0.84832 2.58889,-3.77534 l 2.19202,-3.93269 -1.17957,-2.54145 -1.17957,-2.54145 -2.33257,-0.0767 c -2.29063,-0.0754 -2.33926,-0.0907 -2.70498,-0.85536 -0.32111,-0.67135 -0.32011,-0.87183 0.007,-1.45521 l 0.37962,-0.67659 7.10805,-0.0705 c 6.3339,-0.0629 7.16128,-0.0224 7.59677,0.37173 0.62554,0.56611 0.62801,1.73969 0.005,2.30364 -0.38952,0.35251 -1.06078,0.43788 -3.44291,0.43788 h -2.95906 l 0.9327,1.85208 0.93269,1.85209 h 12.9663 12.96629 l -0.17449,-0.72761 c -0.4723,-1.96932 -1.19512,-3.43747 -1.83617,-3.72955 -0.40296,-0.1836 -2.12572,-0.30534 -4.32086,-0.30534 -4.077,0 -4.52647,-0.17793 -4.52647,-1.79177 0,-1.41791 0.66465,-1.64803 4.75522,-1.64634 1.96854,7.9e-4 4.0554,0.13156 4.63748,0.29056 1.34941,0.3686 2.65404,1.35234 3.22743,2.43362 0.24681,0.46542 1.30074,3.75925 2.34206,7.31962 l 1.89331,6.47341 2.6186,0.0355 c 4.35665,0.0591 7.62248,1.50752 10.6109,4.70597 5.56607,5.95726 5.42541,14.77159 -0.3264,20.45341 -8.39557,8.2934 -22.41668,4.07917 -24.86404,-7.47322 -0.70523,-3.32893 -0.30617,-6.4094 1.24077,-9.57773 1.10255,-2.25819 4.23409,-5.46325 6.24322,-6.38982 1.03159,-0.47575 1.35671,-0.75333 1.23959,-1.05834 -0.0873,-0.22739 -0.34914,-1.09805 -0.58183,-1.9348 -0.23269,-0.83674 -0.49285,-1.52085 -0.57813,-1.52024 -0.0853,5.3e-4 -2.65534,2.64975 -5.71123,5.88698 -3.05589,3.23722 -7.18628,7.55274 -9.17864,9.59003 l -3.62247,3.70417 -3.54983,0.0859 -3.54983,0.0859 -0.32664,1.50155 c -1.10575,5.08324 -5.21547,9.50507 -10.25357,11.03228 -1.94556,0.58976 -4.98368,0.70417 -6.93859,0.2613 z m 5.4482,-3.41518 c 2.12338,-0.56536 3.76855,-1.49141 5.3051,-2.98619 1.42234,-1.38369 2.79619,-3.82657 3.15085,-5.60268 l 0.17755,-0.88911 -6.11144,0.19476 -6.11143,0.19476 -0.80665,-0.80665 c -0.86832,-0.86832 -1.02024,-1.74205 -0.44762,-2.57442 0.19747,-0.28704 1.51475,-2.53423 2.9273,-4.99376 2.79678,-4.86977 2.78238,-4.76791 0.71851,-5.07996 -4.653,-0.70352 -9.60015,2.12037 -11.74699,6.7053 -1.5949,3.40616 -1.24082,7.99083 0.85206,11.03273 2.77144,4.02815 7.68226,5.97953 12.09276,4.80522 z m 47.18608,-0.0452 c 5.66555,-1.2886 9.49218,-6.94759 8.68569,-12.84477 -0.4784,-3.49808 -3.03336,-6.91128 -6.4301,-8.59004 -1.57618,-0.77899 -2.31434,-0.97627 -4.11466,-1.09966 -2.06413,-0.14148 -2.18605,-0.12058 -2.06101,0.35329 0.0731,0.27702 0.83231,2.92218 1.68716,5.87813 1.45999,5.0484 1.53014,5.41746 1.15628,6.08354 -0.42797,0.76248 -0.99706,0.98 -1.94288,0.74261 -0.77195,-0.19374 -0.85395,-0.39723 -2.67753,-6.64435 -0.84957,-2.91042 -1.57707,-5.3359 -1.61665,-5.38996 -0.19083,-0.26061 -2.50383,1.39488 -3.62792,2.59661 -1.80076,1.92517 -2.83325,4.26897 -3.00806,6.82844 -0.39306,5.75508 3.06729,10.56034 8.65677,12.02134 2.17752,0.56916 3.02961,0.5796 5.29291,0.0648 z m -38.75299,-13.58491 c -0.29349,-1.68564 -1.65206,-4.07395 -3.16478,-5.56355 -0.80413,-0.79183 -1.50215,-1.38715 -1.55116,-1.32291 -0.0666,0.0874 -3.50651,6.20062 -4.35627,7.74187 -0.0657,0.11922 1.98581,0.18901 4.55896,0.1551 l 4.67846,-0.0617 z m 7.4268,-0.61811 c -1.49176,-3.30696 -3.42025,-7.48296 -5.13219,-11.11335 l -1.8407,-3.90345 -1.32387,2.31595 c -0.72814,1.27377 -1.45116,2.56412 -1.60673,2.86742 -0.24906,0.48561 -0.0473,0.79166 1.6895,2.56256 2.15313,2.19542 3.56244,4.68869 4.09192,7.23919 l 0.29495,1.42074 h 2.22686 2.22686 z m 5.30619,-2.14175 c 0.84964,-0.9233 4.25347,-4.54735 7.56407,-8.05345 3.31059,-3.5061 6.01918,-6.41185 6.01907,-6.45721 -2.7e-4,-0.1295 -22.56122,-0.20161 -22.76967,-0.0728 -0.10234,0.0633 0.37259,1.27757 1.05542,2.69848 0.68282,1.42092 2.36533,5.04905 3.73891,8.06253 1.37358,3.01347 2.57616,5.48402 2.67241,5.4901 0.0962,0.006 0.87015,-0.74437 1.71979,-1.66767 z"
       style="fill:#000000;stroke-width:0.264583"
       id="path413" /></g></svg>
