<?xml version="1.0" encoding="UTF-8" standalone="no"?>
<!-- Created with Inkscape (http://www.inkscape.org/) -->

<svg
   width="69.337341mm"
   height="43.348465mm"
   viewBox="0 0 69.337341 43.348465"
   version="1.1"
   id="svg5"
   xml:space="preserve"
   xmlns:inkscape="http://www.inkscape.org/namespaces/inkscape"
   xmlns:sodipodi="http://sodipodi.sourceforge.net/DTD/sodipodi-0.dtd"
   xmlns="http://www.w3.org/2000/svg"
   xmlns:svg="http://www.w3.org/2000/svg"><sodipodi:namedview
     id="namedview7"
     pagecolor="#505050"
     bordercolor="#ffffff"
     borderopacity="1"
     inkscape:showpageshadow="0"
     inkscape:pageopacity="0"
     inkscape:pagecheckerboard="1"
     inkscape:deskcolor="#505050"
     inkscape:document-units="mm"
     showgrid="false" /><defs
     id="defs2" /><g
     inkscape:label="Camada 1"
     inkscape:groupmode="layer"
     id="layer1"
     transform="translate(-336.05775,27.278236)"><path
       d="m 346.1633,15.827253 c -2.13687,-0.41966 -4.47097,-1.72557 -6.21915,-3.47956 -7.68303,-7.708588 -2.31789,-20.5759359 8.5793,-20.5759359 3.13118,0 5.82366,1.0812589 8.1344,3.2666569 1.74831,1.653478 2.59945,3.060709 3.35714,5.550511 l 0.57774,1.898456 1.56836,0.579586 c 1.31769,0.486952 2.14346,0.582097 5.16689,0.595312 3.86851,0.01691 4.99173,-0.20979 6.09285,-1.229711 0.56933,-0.527331 4.99298,-8.641363 4.99298,-9.158303 0,-0.08351 -4.91134,-0.128315 -10.91406,-0.09957 l -10.91407,0.05227 -3.78021,-1.7859369 -3.78019,-1.7859381 h -3.44284 c -3.65289,0 -4.33794,0.171757 -5.45445,1.3675341 -0.32047,0.343236 -0.77024,1.0729749 -0.9995,1.6216439 -0.54602,1.306846 -1.45702,1.74525 -2.37572,1.143296 -1.85347,-1.214437 0.2425,-5.462632 3.42874,-6.949532 1.20736,-0.563427 1.68369,-0.617582 5.45308,-0.61994 l 4.13016,-0.0026 3.67504,1.785938 3.67505,1.785937 3.43959,0.09279 c 1.89178,0.05103 7.01146,0.0083 11.37708,-0.09505 l 7.9375,-0.187838 1.76515,-3.21224 c 1.48741,-2.706822 1.70484,-3.259288 1.38187,-3.511254 -0.21979,-0.171471 -2.10127,-0.375951 -4.41098,-0.479393 -5.56248,-0.249118 -7.16136,0.299342 -9.21691,3.161639 -0.59475,0.82818 -1.14076,1.268301 -1.8009,1.451686 -1.24359,0.345451 -9.66647,0.340037 -10.91602,-0.007 -0.53504,-0.148603 -1.6066,-0.713486 -2.38125,-1.255295 l -1.40846,-0.985112 -4.45595,-0.132292 c -4.32826,-0.1285 -4.47089,-0.150765 -4.97721,-0.77702 -0.58799,-0.727263 -0.4803,-1.783294 0.23781,-2.331834 0.54987,-0.420031 8.94584,-0.461724 10.03803,-0.04985 0.40965,0.154487 1.3839,0.720034 2.16499,1.256771 l 1.42016,0.975889 4.45648,0.08344 4.45649,0.08344 1.57213,-1.606666 c 1.05773,-1.080976 2.16488,-1.88741 3.38376,-2.464692 l 1.81164,-0.858022 4.03213,0.05194 4.03215,0.05194 -0.7847,-1.374852 -0.78469,-1.374852 -3.23609,-0.07473 c -2.53781,-0.05861 -3.33845,-0.167362 -3.71046,-0.50403 -0.63002,-0.570153 -0.60251,-1.806641 0.0548,-2.463951 0.47242,-0.472426 0.88193,-0.529166 3.81923,-0.529166 4.45196,0 5.35232,0.402717 6.66472,2.981036 l 0.64199,1.261244 0.72088,-0.692822 c 1.20758,-1.16058 3.18612,-1.956479 4.87085,-1.959373 3.33858,-0.0057 3.65524,0.544772 3.65524,6.354628 v 4.266827 l -0.7734,0.773395 c -0.65497,0.654974 -0.98245,0.773399 -2.13871,0.773399 -0.75092,0 -1.32563,0.09537 -1.27712,0.211933 0.0485,0.116565 0.48503,1.179457 0.97006,2.361983 l 0.88187,2.150047 1.21743,-0.3663931 c 2.19128,-0.659479 4.59692,-0.757049 6.76621,-0.274428 2.65448,0.5905661 3.74636,1.3291501 3.74636,2.5341661 0,1.38607 -0.78,1.659122 -2.86156,1.001749 -1.29347,-0.408485 -2.20129,-0.497289 -4.33238,-0.423799 -1.48281,0.05113 -2.77876,0.175707 -2.87988,0.276828 -0.10113,0.101124 -0.0348,0.543637 0.1473,0.983364 0.28704,0.69298 0.42398,0.774355 1.0278,0.610761 1.21732,-0.329809 4.08964,-0.15997 5.45914,0.322794 3.984,1.404411 6.46288,4.921407 6.47601,9.188048 0.0267,8.675532 -9.91733,13.108032 -16.30661,7.268582 -4.06374,-3.71402 -4.28029,-10.189066 -0.4676,-13.981469 1.00704,-1.001689 1.00314,-0.989542 0.63191,-1.965952 l -0.27358,-0.719566 -0.81898,0.768487 c -1.33367,1.251437 -2.4947,3.27755 -3.24838,5.668765 -0.85925,2.726145 -1.29165,3.434095 -2.09745,3.434095 -2.99978,0 -1.22019,-7.167337 2.77043,-11.157951 l 1.79629,-1.796288 -1.0226,-2.849441 -1.0226,-2.849441 -0.43957,1.058334 c -1.15752,2.7869329 -8.05357,15.666724 -8.91991,16.659761 -1.6959,1.943926 -3.04124,2.351796 -8.1459,2.469596 -3.96962,0.0916 -4.49475,0.0497 -5.78909,-0.46203 -0.7829,-0.30952 -1.44279,-0.52864 -1.46641,-0.48693 -0.0236,0.0417 -0.19363,0.67116 -0.3778,1.39876 -0.45739,1.80708 -1.46501,3.45285 -3.07781,5.02709 -2.97564,2.90449 -6.90173,4.08192 -10.95606,3.2857 z m 5.38449,-3.70126 c 1.37151,-0.51315 4.37644,-2.88021 4.37644,-3.44745 0,-0.13125 -1.93335,-0.23803 -4.30956,-0.23803 -3.94332,0 -4.4098,-0.0506 -5.48902,-0.59532 -2.09528,-1.05756 -2.94061,-3.617671 -1.96529,-5.951939 0.52515,-1.25685 1.08196,-1.857893 2.29447,-2.476736 1.41002,-0.71964 2.38206,-0.63219 6.19483,0.557322 1.86577,0.582083 3.54641,1.058333 3.73477,1.058333 0.60096,0 -0.84924,-2.449275 -2.17229,-3.668819 -3.39535,-3.129723 -8.3516,-3.026181 -11.90442,0.248698 -2.54783,2.348503 -3.3255,6.460689 -1.8455,9.758571 1.01715,2.26653 3.3561,4.35194 5.67071,5.05601 1.32694,0.40364 3.91685,0.25984 5.41486,-0.30064 z m 46.99123,-1.23809 c 3.64807,-1.85012 4.72337,-6.436747 2.26552,-9.663391 -1.17056,-1.536698 -2.72421,-2.34169 -4.84862,-2.512217 -1.72438,-0.138417 -1.72698,-0.137578 -1.53352,0.4953 0.10658,0.348673 0.83449,1.77263 1.61759,3.164343 0.78309,1.391714 1.42381,2.655578 1.42381,2.808595 0,0.65016 -1.11877,1.67248 -1.83028,1.67248 -0.96758,0 -1.29576,-0.41342 -2.93657,-3.699231 L 391.31213,0.3806 390.54692,1.297196 c -0.90743,1.086963 -1.28384,2.29476 -1.27792,4.100607 0.0151,4.61941 5.07639,7.6169 9.27002,5.4901 z M 356.83703,5.033924 c -0.49747,-0.458337 -7.7882,-2.714032 -8.50455,-2.631244 -0.8744,0.101055 -1.43723,1.272752 -0.96882,2.016893 0.24067,0.382346 0.92704,0.470193 4.62005,0.591325 2.38556,0.07825 4.51002,0.167545 4.72103,0.198435 0.23288,0.0341 0.28487,-0.0348 0.13229,-0.175409 z m 32.68927,-24.63925 v -2.645831 h -0.75405 c -0.69121,0 -2.66407,1.175197 -3.06681,1.826837 -0.17908,0.289758 0.37387,1.521684 1.2286,2.737225 0.41039,0.583634 0.71747,0.727604 1.55194,0.727604 h 1.04032 z M 366.15521,0.700578 c -1.16358,-0.850828 -0.60377,-3.263065 1.00133,-4.314765 1.43599,-0.940903 5.40705,-0.136252 5.8249,1.180296 0.47697,1.50278 -0.52715,2.253682 -2.51065,1.877517 -1.44046,-0.273177 -1.84656,-0.191248 -1.84656,0.372532 0,0.495533 -0.88378,1.216017 -1.49163,1.216017 -0.28814,0 -0.72798,-0.14922 -0.97739,-0.331597 z"
       style="fill:#000000;stroke-width:0.264583"
       id="path574" /></g></svg>
