<?xml version="1.0" encoding="UTF-8" standalone="no"?>
<!-- Created with Inkscape (http://www.inkscape.org/) -->

<svg
   width="37.532135mm"
   height="58.159554mm"
   viewBox="0 0 37.532135 58.159554"
   version="1.1"
   id="svg5"
   xml:space="preserve"
   xmlns:inkscape="http://www.inkscape.org/namespaces/inkscape"
   xmlns:sodipodi="http://sodipodi.sourceforge.net/DTD/sodipodi-0.dtd"
   xmlns="http://www.w3.org/2000/svg"
   xmlns:svg="http://www.w3.org/2000/svg"><sodipodi:namedview
     id="namedview7"
     pagecolor="#505050"
     bordercolor="#ffffff"
     borderopacity="1"
     inkscape:showpageshadow="0"
     inkscape:pageopacity="0"
     inkscape:pagecheckerboard="1"
     inkscape:deskcolor="#505050"
     inkscape:document-units="mm"
     showgrid="false" /><defs
     id="defs2" /><g
     inkscape:label="Camada 1"
     inkscape:groupmode="layer"
     id="layer1"
     transform="translate(-477.80375,-61.904577)"><path
       style="fill:#000000;stroke-width:0.264583"
       d="m 493.64625,119.4019 c -2.23564,-1.16452 -3.40708,-3.0748 -3.40708,-5.55596 0,-3.73887 2.71133,-6.47343 6.42465,-6.4797 3.69383,-0.006 6.37072,2.66085 6.37072,6.34741 0,2.66105 -1.5288,4.96613 -3.97023,5.98622 -1.40792,0.58827 -3.98919,0.44631 -5.41806,-0.29797 z m 4.36977,-2.9144 c 2.22646,-1.05652 2.31305,-4.23843 0.15011,-5.51611 -1.54676,-0.9137 -3.6613,-0.14963 -4.38601,1.58484 -1.12172,2.68466 1.57964,5.19175 4.2359,3.93127 z m -5.85334,-12.47651 c -0.32453,-0.0673 -0.84237,-0.4418 -1.15076,-0.83224 -0.5233,-0.66251 -0.55398,-0.95712 -0.45965,-4.414061 0.0983,-3.60143 0.12652,-3.75549 1.01847,-5.55472 0.93015,-1.87629 1.93943,-3.00308 7.18629,-8.02304 2.65705,-2.54214 3.38839,-3.81576 3.38839,-5.90084 0,-3.59124 -3.4027,-5.82036 -7.16431,-4.69335 -1.58158,0.47385 -2.7301,1.62094 -3.9276,3.92269 -1.52877,2.93849 -1.61876,2.975 -7.07379,2.87045 l -4.36583,-0.0837 -0.90506,-0.9883 c -0.81398,-0.88883 -0.90507,-1.14363 -0.90507,-2.53166 0,-5.65436 4.87039,-11.8937 11.30332,-14.48041 3.74861,-1.50733 9.01426,-1.83147 12.90605,-0.79446 3.76469,1.00315 7.70187,3.51399 9.81368,6.25845 2.57814,3.35047 3.73832,7.13376 3.47166,11.32088 -0.30316,4.76024 -1.95524,7.58243 -7.71398,13.17753 -2.29737,2.23209 -4.02745,4.137 -4.25761,4.68785 -0.21483,0.51417 -0.38771,1.75095 -0.38771,2.773751 0,1.5691 -0.0956,1.95712 -0.63795,2.58818 l -0.63796,0.74236 -4.45527,0.0385 c -2.4504,0.0212 -4.72079,-0.0166 -5.04531,-0.0838 z m 7.4031,-4.802431 c 0.0768,-0.84728 0.40699,-2.06767 0.73369,-2.71198 0.34614,-0.68266 2.44026,-3.04828 5.01872,-5.66939 4.58585,-4.66169 5.51469,-5.95792 6.25662,-8.73125 0.41961,-1.56849 0.45593,-4.55553 0.0755,-6.20652 -0.97806,-4.24423 -4.63745,-8.08974 -9.24623,-9.71651 -2.60588,-0.9198 -6.89996,-1.1407 -9.65132,-0.49648 -3.82426,0.89543 -7.41167,3.27331 -9.47379,6.27964 -1.05038,1.53132 -2.03559,4.08995 -2.03559,5.2865 v 0.75233 l 3.10886,-0.001 3.10885,-0.001 0.89016,-1.72151 c 1.00006,-1.93402 2.79658,-3.70447 4.72429,-4.6557 1.05838,-0.52227 1.67479,-0.62454 3.77826,-0.62692 2.23207,-0.003 2.66799,0.0785 3.89283,0.72301 1.91492,1.00771 3.01561,2.04073 3.92656,3.68517 0.70957,1.28092 0.77956,1.63296 0.77956,3.92082 0,3.82392 -0.50296,4.67852 -5.75934,9.78588 -5.0994,4.95482 -5.5305,5.65075 -5.69775,9.19797 l -0.1154,2.447401 h 2.77294 2.77293 l 0.13969,-1.540511 z"
       id="path328"
       sodipodi:nodetypes="sscsssssssssssssssscsssssssssscsssssssssssscccsscsssssccccs" /><path
       d="m 449.13518,169.95731 c -6.30423,-1.05571 -11.02496,-3.58734 -15.5145,-8.3201 -3.55508,-3.74767 -5.5882,-7.39038 -6.8894,-12.34361 -0.78453,-2.98643 -0.95824,-8.45869 -0.36808,-11.59573 1.63247,-8.67769 6.96368,-15.73432 14.83448,-19.63558 5.92547,-2.93704 12.37486,-3.65819 18.93878,-2.11767 12.5379,2.94257 21.48444,15.00137 20.80157,28.03789 -0.64345,12.28424 -9.80631,23.23573 -21.48797,25.68253 -2.85176,0.59732 -7.67684,0.73404 -10.31488,0.29227 z m 9.07313,-3.48837 c 8.44657,-1.73726 15.33113,-7.87636 18.16002,-16.19366 1.86482,-5.48278 1.51465,-12.35176 -0.9013,-17.68001 -2.26008,-4.9845 -7.03008,-9.75461 -12.01427,-12.01455 -3.30562,-1.49884 -5.70254,-1.96105 -10.08425,-1.94463 -4.60325,0.0173 -6.61627,0.44768 -10.28668,2.1995 -6.37238,3.04141 -11.00092,8.59631 -13.01988,15.62572 -0.77111,2.68474 -0.71979,9.71325 0.0914,12.51175 2.62178,9.04531 9.66514,15.68228 18.58499,17.5127 2.41635,0.49585 7.01715,0.48768 9.47001,-0.0168 z m -5.67139,-6.72207 c -0.78489,-0.31675 -1.41737,-1.29762 -1.41737,-2.19812 0,-1.01296 1.28906,-2.30203 2.30203,-2.30203 2.38711,0 3.18051,3.47381 1.00135,4.38431 -1.0231,0.42749 -1.10177,0.43232 -1.88601,0.11584 z m 0.49794,-8.41121 c -1.61229,-0.25672 -1.85971,-4.0538 -0.43475,-6.67192 0.41973,-0.7712 1.40708,-1.94997 2.19409,-2.61949 4.58543,-3.90088 5.32118,-4.94192 5.32118,-7.5291 0,-1.87868 -0.63809,-3.20915 -2.16658,-4.51748 -2.06593,-1.76835 -4.9831,-2.15649 -7.30501,-0.97194 -1.55072,0.79112 -3.07155,2.60572 -3.46336,4.13236 -0.53213,2.07341 -0.76697,2.50112 -1.53324,2.79246 -0.58013,0.22056 -0.84493,0.1755 -1.39232,-0.23691 -1.45689,-1.09765 -0.56577,-4.83541 1.78181,-7.47369 3.91386,-4.39852 11.01688,-4.30617 15.13228,0.19674 1.79145,1.96013 2.47174,3.84362 2.32689,6.44236 -0.19425,3.48487 -1.72689,6.06343 -5.12332,8.61966 -2.63541,1.98347 -3.11249,2.69978 -3.18787,4.78638 -0.0331,0.91774 -0.13021,1.88899 -0.21569,2.15831 -0.18825,0.5931 -1.11829,1.02215 -1.93411,0.89226 z"
       style="fill:#000000;stroke-width:0.264583"
       id="path630"
       inkscape:export-filename="outros.svg"
       inkscape:export-xdpi="96"
       inkscape:export-ydpi="96" /></g></svg>
