<?xml version="1.0" encoding="UTF-8" standalone="no"?>
<!-- Created with Inkscape (http://www.inkscape.org/) -->

<svg
   width="67.693909mm"
   height="63.990547mm"
   viewBox="0 0 67.693909 63.990547"
   version="1.1"
   id="svg5"
   xml:space="preserve"
   xmlns:inkscape="http://www.inkscape.org/namespaces/inkscape"
   xmlns:sodipodi="http://sodipodi.sourceforge.net/DTD/sodipodi-0.dtd"
   xmlns="http://www.w3.org/2000/svg"
   xmlns:svg="http://www.w3.org/2000/svg"><sodipodi:namedview
     id="namedview7"
     pagecolor="#505050"
     bordercolor="#ffffff"
     borderopacity="1"
     inkscape:showpageshadow="0"
     inkscape:pageopacity="0"
     inkscape:pagecheckerboard="1"
     inkscape:deskcolor="#505050"
     inkscape:document-units="mm"
     showgrid="false" /><defs
     id="defs2" /><g
     inkscape:label="Camada 1"
     inkscape:groupmode="layer"
     id="layer1"
     transform="translate(-528.70881,-1.6287511)"><path
       d="m 542.34062,65.358677 c -1.0005,-0.31798 -2.24829,-1.50547 -2.70602,-2.57525 -0.20817,-0.48653 -0.36429,-1.75984 -0.36429,-2.97119 v -2.11978 l -1.05803,-0.53977 c -0.58192,-0.29688 -1.3856,-1.0346 -1.78594,-1.63938 l -0.7279,-1.0996 -0.0739,-11.992047 -0.0739,-11.992044 h -1.91459 c -2.4409,0 -3.53465,-0.534976 -4.36749,-2.136243 -0.57766,-1.110644 -0.60496,-1.405503 -0.52917,-5.716457 0.0722,-4.106614 0.13258,-4.615873 0.62543,-5.275318 1.08437,-1.45091 1.85357,-1.81182 4.07667,-1.912774 l 2.07293,-0.09414 0.0962,-3.346596 c 0.0851,-2.960454 0.1783,-3.522747 0.8074,-4.873222 0.93251,-2.001786 2.94571,-3.948158 4.89974,-4.737077 l 1.52441,-0.615466 18.86163,-0.07769 c 12.16124,-0.05009 19.38581,0.01921 20.33722,0.195085 3.05479,0.564709 5.54866,2.554417 6.91047,5.513455 0.6014,1.306756 0.71138,1.954548 0.80718,4.754051 l 0.11092,3.241146 1.48941,0.0058 c 1.86297,0.0073 3.45427,0.704607 4.29372,1.881588 0.60528,0.848667 0.63938,1.11747 0.72207,5.692595 0.0729,4.035213 0.0181,4.934735 -0.34358,5.634095 -0.70716,1.367496 -1.8175,1.865035 -4.16469,1.866172 l -2.04023,0.0011 -0.0764,11.883818 -0.0764,11.883809 -0.80549,1.14692 c -0.44303,0.6308 -1.30623,1.42372 -1.91823,1.76204 l -1.11273,0.61514 v 2.10534 c 0,2.36506 -0.36274,3.46607 -1.48877,4.51891 -1.10324,1.03152 -1.96958,1.2736 -4.55781,1.2736 -1.87186,0 -2.52811,-0.11249 -3.47302,-0.59531 -1.86267,-0.95178 -2.23305,-1.67308 -2.38665,-4.64788 l -0.1323,-2.5621 -11.17864,-0.069 -11.17864,-0.069 -5.3e-4,2.18568 c -5.3e-4,2.56214 -0.41514,3.5922 -1.9349,4.80666 -0.9596,0.76681 -1.1419,0.80964 -3.70417,0.87019 -1.48219,0.035 -3.03966,-0.0459 -3.46105,-0.17981 z m 5.34342,-3.51214 c 0.15204,-0.1832 0.30683,-1.16546 0.34399,-2.18282 l 0.0676,-1.84973 -2.69285,-0.0754 -2.69285,-0.0754 v 1.94071 c 0,1.15667 0.12827,2.06899 0.3175,2.25822 0.43828,0.43828 4.29066,0.42539 4.65664,-0.0156 z m 34.71652,-0.202 c 0.1575,-0.29429 0.25098,-1.27656 0.20775,-2.18281 l -0.0786,-1.64774 -2.71198,-0.0754 -2.71198,-0.0754 v 1.94071 c 0,1.15667 0.12827,2.06899 0.3175,2.25822 0.19572,0.19572 1.15622,0.3175 2.50423,0.3175 1.92399,0 2.22114,-0.0643 2.4731,-0.53508 z m 3.35552,-7.77606 0.74236,-0.63822 0.0774,-7.828445 0.0774,-7.828447 h -23.95608 -23.95608 v 7.817234 7.817238 l 0.64943,0.64943 0.64943,0.64943 h 22.48686 22.48685 z m -41.33734,-3.28233 c -4.97357,-2.33526 -3.32673,-9.707022 2.15785,-9.659217 3.76503,0.03282 6.26127,4.011393 4.53611,7.229767 -1.31131,2.44631 -4.32702,3.54081 -6.69396,2.42945 z m 3.38439,-3.42779 c 0.62026,-0.544666 0.58656,-1.788535 -0.0661,-2.441241 -1.36278,-1.362784 -3.67,0.2116 -2.87313,1.960546 0.53953,1.184145 1.8872,1.404545 2.93928,0.480695 z m 28.90572,3.40715 c -4.48668,-2.07727 -3.919,-8.266773 0.87521,-9.542491 2.21931,-0.590548 5.05211,0.852943 5.85544,2.98372 0.39771,1.054896 0.3481,3.253691 -0.0924,4.096961 -0.85538,1.63733 -2.97707,2.96921 -4.71147,2.95761 -0.47762,-0.003 -1.34465,-0.22631 -1.92673,-0.4958 z m 3.42459,-3.52601 c 1.34991,-1.927276 -1.29134,-4.00107 -2.74392,-2.154408 -0.30161,0.383426 -0.54837,0.919207 -0.54837,1.190625 0,1.410503 2.47243,2.134283 3.29229,0.963783 z M 560.96615,25.13795 v -8.995834 h -11.1125 -11.1125 v 8.995834 8.995833 h 11.1125 11.1125 z m 25.66458,0 v -8.995834 h -11.1125 -11.1125 v 8.995834 8.995833 h 11.1125 11.1125 z m -51.06458,-2.261584 v -4.113665 l -1.65365,0.07877 -1.65364,0.07877 -0.073,4.034896 -0.073,4.034895 h 1.72668 1.72669 z m 57.35533,0.07877 -0.073,-4.034896 -1.52136,-0.07935 -1.52135,-0.07935 v 4.114247 4.114244 h 1.59439 1.59439 z m -6.42019,-11.641668 c -0.40643,-3.152258 -1.34663,-4.740123 -3.39336,-5.730931 -1.12651,-0.545335 -1.40681,-0.552923 -20.42199,-0.552923 -18.95016,0 -19.29913,0.0094 -20.41005,0.547139 -2.12812,1.030212 -3.53474,3.463802 -3.53474,6.115467 v 1.010311 h 23.96962 23.96962 z m -34.1191,-1.580226 c -0.22653,-0.323419 -0.41188,-0.773179 -0.41188,-0.999461 0,-0.226282 0.18535,-0.676042 0.41188,-0.999461 l 0.41188,-0.588039 h 9.86587 c 9.22186,0 9.89444,0.03158 10.30374,0.483854 0.5783,0.639014 0.55649,1.708044 -0.046,2.253263 -0.43194,0.390898 -1.53753,0.437883 -10.30375,0.437883 h -9.81989 z"
       style="fill:#000000;stroke-width:0.264583"
       id="path546" /></g></svg>
