<?xml version="1.0" encoding="UTF-8" standalone="no"?>
<!-- Created with Inkscape (http://www.inkscape.org/) -->

<svg
   width="66.157837mm"
   height="60.456512mm"
   viewBox="0 0 66.157837 60.456512"
   version="1.1"
   id="svg5"
   xml:space="preserve"
   xmlns:inkscape="http://www.inkscape.org/namespaces/inkscape"
   xmlns:sodipodi="http://sodipodi.sourceforge.net/DTD/sodipodi-0.dtd"
   xmlns="http://www.w3.org/2000/svg"
   xmlns:svg="http://www.w3.org/2000/svg"><sodipodi:namedview
     id="namedview7"
     pagecolor="#505050"
     bordercolor="#ffffff"
     borderopacity="1"
     inkscape:showpageshadow="0"
     inkscape:pageopacity="0"
     inkscape:pagecheckerboard="1"
     inkscape:deskcolor="#505050"
     inkscape:document-units="mm"
     showgrid="false" /><defs
     id="defs2" /><g
     inkscape:label="Camada 1"
     inkscape:groupmode="layer"
     id="layer1"
     transform="translate(142.61232,-73.161405)"><path
       d="m -131.12789,133.18739 c -0.77346,-0.54176 -1.24839,-1.83786 -1.07192,-2.92533 l 0.14957,-0.92167 h -1.64429 c -2.06497,0 -2.82036,-0.46062 -2.82036,-1.71979 0,-1.7658 -0.3967,-1.71979 14.82942,-1.71979 h 13.65334 l 0.54368,-0.59532 c 0.52237,-0.57197 6.32422,-10.35646 7.45299,-12.56902 0.301107,-0.59023 0.844747,-1.30698 1.208087,-1.59279 l 0.66062,-0.51964 -0.59572,-2.07938 -0.59572,-2.07938 -4.495097,-0.0262 c -3.74059,-0.0218 -4.6094,-0.10108 -5.17611,-0.4724 -1.1777,-0.77166 -1.63113,-2.45091 -0.99834,-3.69734 0.16136,-0.31785 1.79418,-2.816351 3.62847,-5.552211 l 3.33507,-4.97431 -1.4222,-5.74132 c -0.78222,-3.15773 -1.52766,-6.12828 -1.65654,-6.60122 -0.22234,-0.81593 -0.29832,-0.8599 -1.48593,-0.8599 -1.56938,0 -2.42769,-0.55988 -2.42769,-1.5836 0,-1.4106 1.0175,-1.84288 4.61353,-1.96007 1.53709,-0.0501 1.78405,-0.1419 2.76459,-1.02776 1.0638,-0.96108 1.50438,-1.03287 2.34532,-0.38218 0.540027,0.41786 0.378597,1.63375 -0.36296,2.73388 -0.38153,0.56601 -0.82802,1.11025 -0.99219,1.20943 -1.32383,0.79973 -1.3163,0.52878 -0.14926,5.37593 0.59563,2.47385 1.13548,4.66258 1.19967,4.86383 0.0643,0.20155 1.259567,-1.34354 2.660897,-3.43958 3.19532,-4.7794 3.63341,-5.2607 4.78834,-5.2607 1.72198,0 1.00787,-0.94805 12.00562,15.93853 4.66379,7.161051 4.72852,7.279811 4.72852,8.674931 0,0.85398 -0.16848,1.26031 -0.77339,1.86522 -0.42537,0.42537 -0.99092,0.78483 -1.25677,0.79879 -0.26586,0.014 -4.29338,0.0437 -8.95004,0.0661 -6.06605,0.0292 -8.45127,0.12445 -8.41237,0.33595 0.0299,0.16235 0.49702,2.38025 1.03812,4.92866 l 0.98382,4.63347 1.40338,0.14484 c 3.96661,0.40939 7.07755,4.04995 7.04039,8.23898 -0.031,3.49427 -1.67261,6.34829 -4.42646,7.69562 -4.0081,1.96099 -8.27311,0.49699 -10.248787,-3.51797 -0.76913,-1.56303 -0.87143,-2.02315 -0.86839,-3.90576 0.003,-1.87219 0.10971,-2.34987 0.86961,-3.89345 0.530487,-1.07756 1.329867,-2.16761 2.062647,-2.81262 1.11307,-0.97976 1.18407,-1.11926 1.01861,-2.00122 -0.0978,-0.52143 -0.2664,-1.00277 -0.37462,-1.06966 -0.10822,-0.0669 -0.53413,0.49998 -0.94646,1.2597 -1.56977,2.89225 -6.018397,10.41543 -6.661307,11.2651 -0.89094,1.17745 -2.05769,1.6256 -4.23166,1.62541 l -1.79444,-1.7e-4 0.0914,1.31823 c 0.0814,1.1743 0.004,1.40541 -0.70726,2.11683 -1.32927,1.32927 -3.35601,0.97207 -4.16568,-0.73419 -0.34837,-0.73413 -0.38418,-1.11695 -0.16981,-1.81542 l 0.27165,-0.88512 h -5.90359 -5.9036 l 0.27898,0.90899 c 0.69239,2.25601 -2.02069,4.28048 -3.93734,2.93801 z m 39.830607,-3.70119 c 4.05486,-2.09685 3.43859,-8.88573 -0.87008,-9.58493 l -0.90125,-0.14626 0.63729,2.95215 c 0.67883,3.1446 0.60991,3.79048 -0.43999,4.12371 -1.10975,0.35222 -1.72976,-0.45811 -2.36966,-3.09701 -0.32852,-1.35479 -0.68015,-2.55573 -0.7814,-2.66874 -0.25719,-0.28706 -1.49808,2.11464 -1.71039,3.31041 -0.33671,1.89642 0.62393,3.94902 2.33711,4.99371 0.98797,0.60246 3.04594,0.66119 4.09837,0.11696 z m -9.075527,-27.0839 c -0.072,-0.24545 -0.32295,-1.22019 -0.5577,-2.16608 -0.95595,-3.851711 -0.93836,-3.805561 -1.29999,-3.410071 -0.31293,0.34224 -3.85666,5.961631 -3.85785,6.117501 -2.6e-4,0.0389 1.31503,0.0334 2.92294,-0.0122 2.5959,-0.0736 2.90881,-0.13289 2.7926,-0.52917 z m 17.697257,-3.368701 c -1.3804,-2.11665 -4.20655,-6.51914 -6.28031,-9.78332 -2.07377,-3.26418 -3.85399,-5.93769 -3.95605,-5.94113 -0.10207,-0.003 -1.6041,2.148 -3.33787,4.78099 l -3.1523,4.78725 0.88434,3.48098 c 0.48638,1.91454 0.8871,3.748871 0.89047,4.076291 0.006,0.56773 0.39312,0.82662 0.57939,0.38732 0.0485,-0.1144 0.47515,-0.47969 0.94809,-0.81177 0.51619,-0.362441 0.86241,-0.834521 0.86618,-1.181061 0.003,-0.31752 0.30056,-1.29168 0.66023,-2.1648 0.84075,-2.04094 0.82523,-2.17347 -0.15765,-1.34644 -0.93994,0.79092 -1.36468,0.8497 -1.94517,0.26921 -0.61673,-0.61673 -0.54154,-0.80584 0.94552,-2.37819 1.81281,-1.91678 2.23335,-1.89923 4.67259,0.19495 1.04699,0.89888 1.90362,1.81224 1.90362,2.02969 0,0.43612 -0.74709,1.36307 -1.09858,1.36307 -0.12255,0 -0.69941,-0.43057 -1.28191,-0.95683 l -1.0591,-0.95683 v 0.68961 c 0,0.59164 0.24178,0.79924 1.70179,1.46124 1.40685,0.6379 1.79909,0.96238 2.26331,1.87231 0.71871,1.408801 0.65829,3.260931 -0.11115,3.407091 -0.60569,0.11506 -1.20811,-0.61138 -1.20811,-1.45681 0,-0.63629 -0.68427,-1.149361 -1.53286,-1.149361 -0.28012,0 -1.03209,0.457821 -1.67104,1.017391 -1.40087,1.22683 -2.18554,1.66661 -3.41069,1.91158 -0.50932,0.10185 2.97166,0.19887 7.73553,0.2156 l 8.66156,0.0304 z m -11.72447,-8.40557 c -0.7189,-0.76523 -0.73878,-1.86998 -0.0461,-2.56264 0.7151,-0.7151 1.73896,-0.66634 2.52557,0.12027 0.7866,0.7866 0.83536,1.81047 0.12026,2.52556 -0.71376,0.71376 -1.88626,0.67624 -2.59971,-0.0832 z m -38.324557,34.202661 c -3.05422,-0.60389 -6.89851,-3.59927 -8.38557,-6.53383 -1.45101,-2.86344 -1.90581,-6.81874 -1.12235,-9.76108 1.30394,-4.89709 5.49453,-8.749841 10.48765,-9.642171 l 1.89847,-0.33927 -0.1416,-0.8127 c -0.27274,-1.56549 -3.09136,-15.10349 -3.21272,-15.43094 -0.0872,-0.23533 -0.91105,-0.33072 -2.85609,-0.33072 -3.02739,0 -3.36852,-0.15082 -3.36852,-1.48923 0,-1.52775 0.41215,-1.68577 4.39655,-1.68577 3.38105,0 3.59683,0.0318 4.1818,0.61678 0.66285,0.66286 1.09575,2.29672 2.9736,11.22308 l 1.01576,4.8284 3.91463,2.4e-4 c 3.80334,2.4e-4 3.9331,0.0187 4.56406,0.64968 0.78029,0.78028 0.82288,1.45874 0.14426,2.29782 -0.48079,0.59445 -0.68523,0.62878 -4.23334,0.71076 -2.05048,0.0474 -3.72815,0.17737 -3.72815,0.28885 0,0.11149 0.44648,0.3365 0.99219,0.50002 1.16626,0.349471 2.99407,1.470041 4.37371,2.681381 0.90683,0.79621 1.1401,0.86756 3.04465,0.93129 4.38207,0.14662 6.03772,1.78043 7.87156,7.76769 0.72052,2.35241 0.9502,2.79964 1.65921,3.23082 2.96397,1.8025 3.20046,6.50883 0.43311,8.61959 -0.90633,0.69129 -1.20034,0.76505 -3.04959,0.76505 -1.89485,0 -2.12192,-0.0609 -3.0633,-0.8218 -1.5264,-1.23373 -2.06619,-2.33417 -2.07099,-4.22197 -0.003,-1.31955 0.12792,-1.80704 0.73314,-2.72244 0.58053,-0.87807 1.77952,-1.75861 2.752,-2.02108 0.11581,-0.0313 -1.52916,-4.43663 -2.00471,-5.36879 -0.6741,-1.32134 -1.01737,-1.58516 -2.33712,-1.7962 l -1.09093,-0.17444 0.42734,1.15502 c 0.62064,1.67749 0.59681,6.00512 -0.0435,7.90191 -2.17937,6.45583 -8.623,10.27563 -15.1552,8.98405 z m 5.73469,-3.85515 c 2.59062,-0.82581 5.11156,-3.42075 5.96918,-6.14439 0.32141,-1.02072 0.41289,-2.01915 0.32988,-3.60052 -0.20036,-3.81746 -1.84522,-6.19642 -5.47267,-7.91513 -1.5128,-0.71678 -2.04187,-0.82994 -3.8691,-0.82756 -1.73377,0.002 -2.38931,0.13007 -3.62386,0.70649 -3.85973,1.80214 -6.19524,6.18897 -5.51335,10.35583 0.98266,6.00485 6.35726,9.28138 12.17992,7.42528 z m -5.22794,-5.3767 c -1.3641,-0.85599 -1.96279,-2.02766 -1.8461,-3.6129 0.29465,-4.00275 4.97096,-5.21716 7.40953,-1.92421 1.14758,1.54963 0.842,3.78835 -0.71577,5.24375 -0.98199,0.91745 -3.60058,1.07592 -4.84766,0.29336 z m 3.27888,-3.05612 c 0.22523,-0.58692 -0.40229,-1.45858 -1.05004,-1.45858 -1.23524,0 -1.66215,1.25777 -0.66416,1.95679 0.61573,0.43127 1.45064,0.18862 1.7142,-0.49821 z m 19.47771,7.48495 c 0.25466,-0.29452 0.46302,-0.78251 0.46302,-1.08443 0,-0.80743 -1.02848,-1.77368 -1.8879,-1.77368 -0.83191,0 -1.81627,0.89683 -1.81627,1.65478 0,1.79736 2.06469,2.56391 3.24115,1.20333 z"
       style="fill:#000000;stroke-width:0.264583"
       id="path359" /></g></svg>
