<?xml version="1.0" encoding="UTF-8" standalone="no"?>
<!-- Created with Inkscape (http://www.inkscape.org/) -->

<svg
   width="40.165939mm"
   height="66.317665mm"
   viewBox="0 0 40.165939 66.317665"
   version="1.1"
   id="svg5"
   xml:space="preserve"
   xmlns:inkscape="http://www.inkscape.org/namespaces/inkscape"
   xmlns:sodipodi="http://sodipodi.sourceforge.net/DTD/sodipodi-0.dtd"
   xmlns="http://www.w3.org/2000/svg"
   xmlns:svg="http://www.w3.org/2000/svg"><sodipodi:namedview
     id="namedview7"
     pagecolor="#505050"
     bordercolor="#ffffff"
     borderopacity="1"
     inkscape:showpageshadow="0"
     inkscape:pageopacity="0"
     inkscape:pagecheckerboard="1"
     inkscape:deskcolor="#505050"
     inkscape:document-units="mm"
     showgrid="false" /><defs
     id="defs2" /><g
     inkscape:label="Camada 1"
     inkscape:groupmode="layer"
     id="layer1"
     transform="translate(-220.45812,112.04596)"><path
       d="m 248.50662,-46.254316 c -0.65367,-0.336934 -1.43379,-0.982216 -1.7336,-1.433957 -0.29981,-0.451745 -1.11951,-3.071119 -1.82156,-5.820833 -0.70205,-2.749717 -1.43254,-5.251823 -1.6233,-5.560237 -0.19077,-0.308417 -1.02249,-1.357167 -1.84827,-2.330554 l -1.50143,-1.769798 -2.299,3.521179 c -1.26445,1.936646 -3.07151,4.414146 -4.0157,5.505553 -0.94417,1.091406 -2.47567,2.921687 -3.40333,4.067294 -1.83707,2.26869 -3.09815,3.060644 -4.8896,3.070645 -2.92033,0.0163 -5.47579,-3.004224 -4.8045,-5.678855 0.0947,-0.37747 1.6624,-2.660065 3.4837,-5.07243 3.37806,-4.474348 4.34274,-6.085023 5.41054,-9.033709 0.87059,-2.404102 1.85374,-2.979668 3.04864,-1.784763 0.87122,0.87121 0.82668,1.437249 -0.34035,4.326017 -0.81051,2.006251 -1.66793,3.369085 -4.63261,7.36335 -2.00091,2.695789 -3.63802,5.052057 -3.63802,5.236146 0,0.498078 0.89037,1.210471 1.51288,1.210471 0.29984,0 0.78094,-0.208359 1.0691,-0.463021 1.43547,-1.268563 6.53429,-7.775741 8.72525,-11.135252 l 2.47541,-3.795685 -1.00434,-1.199119 c -3.0117,-3.595766 -3.78781,-4.689485 -4.30099,-6.061074 l -0.56492,-1.509892 0.75488,-3.660688 c 0.41518,-2.013376 0.69996,-3.660685 0.63284,-3.660685 -0.0671,0 -0.49504,0.284507 -0.95094,0.632235 -0.61403,0.468345 -1.01804,1.175552 -1.55852,2.728175 -0.97045,2.787763 -1.53613,3.656557 -2.80098,4.301833 -2.67739,1.365904 -5.86859,-0.05165 -6.65012,-2.954035 -0.24052,-0.893236 -0.16732,-1.450766 0.50825,-3.870788 1.13288,-4.058182 1.78926,-5.674318 2.61598,-6.441099 0.80319,-0.744947 10.50274,-7.265328 11.97164,-8.047757 0.66527,-0.354364 1.49011,-0.494748 2.92912,-0.498521 1.71489,-0.0045 2.22865,0.11011 3.5709,0.796559 1.29809,0.663871 1.90065,1.232834 3.50253,3.307291 1.0641,1.378017 2.93546,3.772834 4.15858,5.321816 l 2.22386,2.816336 2.45698,0.973849 c 4.36227,1.729031 5.62285,3.0318 5.42964,5.611373 -0.1774,2.368532 -2.0061,4.053983 -4.39854,4.053983 -1.07936,0 -5.0734,-1.162648 -7.39939,-2.153931 -0.67589,-0.288049 -1.67319,-0.955312 -2.21622,-1.482809 -0.54303,-0.527497 -1.04523,-0.901189 -1.11599,-0.830429 -0.0708,0.07076 -0.20399,0.777401 -0.29606,1.57031 l -0.16741,1.441651 3.56161,5.035031 c 1.95888,2.769264 3.743,5.388638 3.96471,5.820833 0.53315,1.03932 3.11026,12.179149 3.11026,13.444437 0,3.405195 -4.0137,5.705837 -7.14161,4.093554 z m 3.21817,-3.299447 c 0.26612,-0.240834 0.48386,-0.708083 0.48386,-1.038331 0,-0.996003 -2.38046,-10.982944 -2.82729,-11.861536 -0.22865,-0.449603 -2.01524,-3.059699 -3.97019,-5.800214 -1.95496,-2.740514 -3.64342,-5.223221 -3.75214,-5.517128 -0.11987,-0.324038 0.30017,-3.049222 1.06714,-6.923494 1.36748,-6.907752 1.47827,-8.022079 0.90609,-9.11424 -1.27495,-2.433629 -4.01748,-3.577944 -6.05498,-2.526426 -2.21518,1.143217 -10.84213,7.141405 -11.14968,7.752209 -0.18675,0.370885 -0.73008,1.973707 -1.2074,3.561831 -0.93889,3.123832 -0.89195,3.660987 0.33278,3.808338 0.87073,0.104762 1.31929,-0.535672 2.17889,-3.110907 0.3667,-1.098584 0.93406,-2.308823 1.26081,-2.68942 0.77685,-0.904875 6.11848,-4.202798 6.80724,-4.202798 0.66909,0 1.59206,0.898456 1.59206,1.549762 0,0.270285 -0.47771,2.779898 -1.06157,5.576914 l -1.06158,5.085485 0.4891,1.103814 c 0.44052,0.994207 6.07456,7.973081 8.92409,11.054255 1.57621,1.70435 2.03165,2.73449 3.14572,7.115186 0.53661,2.110052 1.09014,4.277584 1.23006,4.816739 0.44411,1.711214 1.61763,2.309619 2.66699,1.359961 z m 5.34829,-27.670418 c 0.43768,-0.699053 -0.37152,-1.312754 -3.40922,-2.58559 -2.81601,-1.179939 -3.51187,-1.700908 -5.20977,-3.900379 -0.58976,-0.763984 -1.16139,-1.389062 -1.27028,-1.389062 -0.10889,0 -0.34224,0.733245 -0.51855,1.629436 l -0.32058,1.629434 1.55499,1.55499 c 1.40366,1.403652 1.83707,1.656345 4.45334,2.596436 3.06215,1.100304 4.24898,1.21716 4.72007,0.464735 z m -15.5563,-19.907544 c -3.13613,-1.289296 -4.78021,-3.802635 -4.7635,-7.282065 0.008,-1.6093 0.13955,-2.23443 0.69737,-3.3073 2.35307,-4.5257 8.02691,-5.71781 12.05597,-2.53303 1.8093,1.43018 2.5384,2.99669 2.65666,5.70803 0.0861,1.97362 0.0325,2.23209 -0.79294,3.82444 -1.90915,3.68296 -6.00102,5.173743 -9.85356,3.589925 z m 5.61993,-3.545965 c 1.15252,-0.82067 1.73056,-2.02226 1.73882,-3.61458 0.014,-2.69984 -1.90044,-4.45391 -4.67408,-4.28252 -2.89611,0.17897 -4.59913,2.41813 -4.05303,5.32905 0.21201,1.13016 1.29318,2.47481 2.38982,2.97224 1.19639,0.542672 3.56055,0.334869 4.59847,-0.40419 z"
       style="fill:#000000;stroke-width:0.264583"
       id="path385"
       inkscape:export-filename="pedestre.svg"
       inkscape:export-xdpi="96"
       inkscape:export-ydpi="96" /></g></svg>
