<?xml version="1.0" encoding="UTF-8" standalone="no"?>
<!-- Created with Inkscape (http://www.inkscape.org/) -->

<svg
   width="63.358185mm"
   height="50.318886mm"
   viewBox="0 0 63.358185 50.318886"
   version="1.1"
   id="svg5"
   xml:space="preserve"
   xmlns:inkscape="http://www.inkscape.org/namespaces/inkscape"
   xmlns:sodipodi="http://sodipodi.sourceforge.net/DTD/sodipodi-0.dtd"
   xmlns="http://www.w3.org/2000/svg"
   xmlns:svg="http://www.w3.org/2000/svg"><sodipodi:namedview
     id="namedview7"
     pagecolor="#505050"
     bordercolor="#ffffff"
     borderopacity="1"
     inkscape:showpageshadow="0"
     inkscape:pageopacity="0"
     inkscape:pagecheckerboard="1"
     inkscape:deskcolor="#505050"
     inkscape:document-units="mm"
     showgrid="false" /><defs
     id="defs2" /><g
     inkscape:label="Camada 1"
     inkscape:groupmode="layer"
     id="layer1"
     transform="translate(-286.02482,-85.627401)"><path
       d="m 293.14557,135.51757 c -3.02434,-1.04547 -5.02779,-2.85514 -6.39737,-5.77858 -0.64414,-1.37496 -0.72337,-1.84837 -0.72337,-4.32221 0,-2.44112 0.0834,-2.95465 0.68717,-4.23333 2.54059,-5.38021 8.99554,-7.77696 14.18247,-5.26601 1.38078,0.66841 1.18579,0.82565 2.73988,-2.20938 0.57774,-1.12829 1.50533,-2.79517 2.06131,-3.70417 1.78681,-2.92135 1.74427,-2.55004 0.56267,-4.91081 l -1.05862,-2.11504 -2.44369,-0.0916 c -2.84872,-0.10674 -3.80017,-0.59428 -4.74017,-2.42895 -0.78665,-1.535365 -0.82091,-4.089185 -0.0684,-5.099545 1.49648,-2.00931 2.6629,-2.17472 6.54736,-0.92847 1.42723,0.45789 3.51083,0.96582 4.63021,1.12872 2.45966,0.35796 3.34994,0.77583 4.03033,1.89171 1.51517,2.48495 -0.29287,5.477265 -3.3095,5.477265 -0.514,0 -0.93454,0.0657 -0.93454,0.14601 0,0.0803 0.26789,0.61518 0.59531,1.18858 l 0.59532,1.04258 2.77812,0.0632 c 5.12967,0.11676 5.06125,0.12503 6.36111,-0.76941 0.66095,-0.45481 2.14022,-1.67936 3.28726,-2.72123 2.48843,-2.260245 3.18645,-2.651465 5.07934,-2.846825 1.19075,-0.1229 1.40757,-0.22178 1.25676,-0.57313 -0.62303,-1.45159 -0.7363,-2.44687 -0.40213,-3.53346 0.60198,-1.95739 0.65708,-3.31394 0.1651,-4.0648 -0.82738,-1.26274 -2.22608,-1.61884 -6.89951,-1.75655 -2.48374,-0.0732 -4.48848,-0.2534 -4.82552,-0.43378 -1.16573,-0.62388 -0.96351,-2.44232 0.32612,-2.93264 0.34087,-0.12959 2.64972,-0.14502 5.20944,-0.0348 3.913,0.16848 4.79414,0.28588 5.92016,0.78877 3.32023,1.48283 4.63825,4.33967 3.70992,8.04132 -0.43236,1.72399 -0.42926,1.83167 0.0989,3.43432 0.45979,1.39525 2.14433,8.288385 2.14433,8.774595 0,0.0858 0.51674,0.15596 1.1483,0.15596 1.60203,0 4.97839,0.90692 6.61048,1.77564 0.75314,0.40088 2.20504,1.56434 3.22645,2.58547 2.89153,2.89076 4.09251,5.80807 4.08641,9.92639 -0.002,1.23693 -0.12672,2.78474 -0.27754,3.43958 -1.1133,4.83389 -5.73544,9.25044 -10.77223,10.29309 -9.239,1.91254 -17.78929,-5.39566 -17.16352,-14.6702 0.33693,-4.99358 3.29352,-9.46804 7.75392,-11.73465 0.8892,-0.45187 1.76357,-0.82157 1.94304,-0.82157 0.2043,0 0.25768,-0.17313 0.14277,-0.46302 -0.10094,-0.25466 -0.37527,-1.44529 -0.60962,-2.64584 l -0.4261,-2.18281 h -1.5335 -1.53351 l -2.44351,2.15408 c -1.34393,1.18474 -3.09239,2.58373 -3.88547,3.10885 l -1.44198,0.95479 h -4.36154 -4.36155 l -1.04073,1.70044 c -0.57239,0.93524 -1.8714,3.18263 -2.88668,4.99419 l -1.84596,3.29376 0.96017,1.89167 c 2.58058,5.08416 1.07476,10.74463 -3.70533,13.92854 -2.19372,1.46119 -6.2263,1.96511 -8.74849,1.09322 z m 6.18584,-3.52368 c 2.2827,-1.10504 3.84372,-3.24158 4.17101,-5.70881 0.5248,-3.95614 -2.96721,-8.00185 -6.91327,-8.00945 -5.84868,-0.0113 -9.37369,6.36582 -6.18216,11.18415 0.79522,1.20056 2.43719,2.47534 3.67,2.84928 1.42276,0.43156 4.03563,0.27484 5.25442,-0.31517 z m -4.58735,-4.84529 c -1.39509,-1.39509 -0.41902,-3.8588 1.52135,-3.84007 0.9712,0.009 1.55981,0.36818 2.01933,1.23096 0.49626,0.93176 0.35989,1.65966 -0.4656,2.48514 -0.98679,0.9868 -2.16476,1.03429 -3.07508,0.12397 z m 42.50768,4.61448 c 4.43438,-0.83476 7.90661,-4.3348 8.7292,-8.79913 0.96659,-5.24589 -2.43445,-10.6478 -7.68278,-12.20266 -0.79039,-0.23416 -1.84608,-0.42575 -2.34596,-0.42575 -0.81252,0 -0.89228,0.0631 -0.75237,0.59531 0.0861,0.32743 0.59948,2.75359 1.1409,5.39148 0.94756,4.61662 0.96739,4.82212 0.52972,5.49009 -0.55498,0.84701 -1.78312,0.93786 -2.48271,0.18366 -0.31492,-0.3395 -0.81149,-2.17688 -1.48377,-5.49009 -0.55575,-2.7389 -1.11734,-5.08898 -1.248,-5.2224 -0.40403,-0.41258 -2.39348,0.68375 -3.88732,2.14221 -5.18841,5.06551 -3.93621,13.89877 2.4416,17.22342 1.31536,0.68568 3.60374,1.31761 4.92482,1.35997 0.38032,0.0122 1.33282,-0.0986 2.11667,-0.24611 z M 310.36171,99.495375 c 0.16961,-0.27444 -0.34517,-0.42121 -2.24417,-0.63983 -0.65484,-0.0754 -2.53182,-0.54512 -4.17107,-1.04387 -1.72397,-0.52452 -3.04563,-0.80132 -3.13507,-0.65659 -0.2723,0.44057 0.16792,2.04438 0.63605,2.3173 0.58874,0.34322 8.70341,0.36415 8.91426,0.023 z"
       style="fill:#000000;stroke-width:0.264583"
       id="path602" /></g></svg>
