<?xml version="1.0" encoding="UTF-8" standalone="no"?>
<!-- Created with Inkscape (http://www.inkscape.org/) -->

<svg
   width="103.55027mm"
   height="106.00752mm"
   viewBox="0 0 103.55027 106.00752"
   version="1.1"
   id="svg5"
   xml:space="preserve"
   xmlns:inkscape="http://www.inkscape.org/namespaces/inkscape"
   xmlns:sodipodi="http://sodipodi.sourceforge.net/DTD/sodipodi-0.dtd"
   xmlns="http://www.w3.org/2000/svg"
   xmlns:svg="http://www.w3.org/2000/svg"><sodipodi:namedview
     id="namedview7"
     pagecolor="#505050"
     bordercolor="#ffffff"
     borderopacity="1"
     inkscape:showpageshadow="0"
     inkscape:pageopacity="0"
     inkscape:pagecheckerboard="1"
     inkscape:deskcolor="#505050"
     inkscape:document-units="mm"
     showgrid="false" /><defs
     id="defs2" /><g
     inkscape:label="Camada 1"
     inkscape:groupmode="layer"
     id="layer1"
     transform="translate(-82.474436,26.315343)"><path
       d="m 160.02277,79.322589 c -5.92771,-1.28598 -15.94813,-5.37658 -22.92643,-9.35918 -4.05969,-2.31691 -11.35229,-7.22782 -14.806,-9.97051 -8.21002,-6.51978 -14.41511,-12.84803 -20.40484,-20.80985 C 89.60537,22.859769 82.46067,7.1899892 82.47446,-3.3893408 c 0.007,-5.70025 1.32255,-8.9859802 5.12397,-12.8018602 2.35526,-2.36422 6.4292,-5.44832 10.02012,-7.58555 4.21105,-2.50632 8.5997,-1.2381 11.39521,3.29294 1.44528,2.34256 8.47756,14.9433402 8.7512,15.6808202 0.49125,1.32398 0.66158,3.11723 0.42095,4.43176997 -0.52155,2.84922003 -1.1052,3.64334003 -5.22353,7.10735003 -4.07719,3.4293998 -4.67979,4.1500498 -4.94411,5.9126998 -0.20545,1.37003 0.31611,2.87503 2.39523,6.91158 3.31226,6.43065 7.24873,11.69299 12.97898,17.35049 5.14337,5.07808 8.58267,7.86901 14.38366,11.67207 4.98692,3.26937 6.0631,3.74908 8.42878,3.75716 1.52405,0.005 2.18825,-0.11097 2.72784,-0.47716 0.39229,-0.26623 2.20038,-2.11656 4.01798,-4.11184 3.86146,-4.23897 4.81918,-4.85892 7.74824,-5.0156 2.42211,-0.12956 3.21023,0.13821 7.09968,2.41217 13.82707,8.08393 14.61728,8.63689 15.9597,11.16807 0.60054,1.13233 0.70153,1.64691 0.701,3.57187 -5.3e-4,2.09203 -0.072,2.38743 -1.02408,4.23333 -1.3052,2.53066 -3.50437,5.87322 -5.4796,8.32857 -3.22987,4.01497 -6.07149,6.06124 -9.55899,6.8835 -2.04899,0.4831 -6.12232,0.47801 -8.37392,-0.0104 z m -12.64998,-45.58607 c -2.55894,-0.89563 -4.55591,-2.71104 -5.55949,-5.05401 -0.21446,-0.50069 -0.60144,-2.15194 -0.85997,-3.66945 l -0.47004,-2.75911 -2.40017,-2.22466 c -3.74498,-3.47113 -5.73985,-6.87862 -6.97007,-11.9057198 -0.67487,-2.75775 -0.81292,-8.95987003 -0.25828,-11.60364 1.61908,-7.7175702 6.23066,-14.6118302 12.44512,-18.6053202 6.78912,-4.36277 16.06114,-5.44684 23.97371,-2.80296 3.86993,1.29309 6.98863,3.12847 9.90691,5.83028 3.61942,3.35093 6.79199,8.71843 8.11669,13.7321302 0.61451,2.32581 0.7006,3.17435 0.72413,7.13753 0.0228,3.83898 -0.0597,4.83907 -0.56343,6.82661 -1.3268,5.2354698 -4.21501,9.7064998 -8.16334,12.6370498 l -1.352,1.0035 -0.31624,2.46586 c -0.41369,3.22581 -1.26592,5.10755 -3.09781,6.84009 -2.67958,2.53423 -2.47718,2.4967 -13.85798,2.56971 -9.01507,0.0578 -10.04761,0.0197 -11.29774,-0.41789 z m 12.45241,-7.09102 c 0.0925,-0.67516 0.16825,-1.67944 0.16825,-2.23174 0,-2.13537 1.0401,-3.41988 2.76914,-3.41988 1.22647,0 2.18007,0.55448 2.52816,1.47001 0.13115,0.34498 0.14725,1.64427 0.0361,2.91228 -0.22836,2.60452 -0.12243,2.76337 1.51536,2.27267 1.69356,-0.5074 2.18468,-1.28784 2.47467,-3.93251 0.42349,-3.86212 0.66507,-4.30666 4.28319,-7.88182 3.60791,-3.56507 4.86493,-5.59293 5.57625,-8.9958298 0.48915,-2.34011 0.49879,-6.88625003 0.0194,-9.12813 -1.67057,-7.8116802 -7.68958,-14.1897502 -15.76261,-16.7029302 -2.50982,-0.78133 -7.39308,-0.85596 -9.94806,-0.15204 -6.08261,1.67582 -11.40418,5.9714 -14.13034,11.4060502 -1.5091,3.00844 -2.03935,5.11792 -2.26747,9.0208 -0.37633,6.43842 1.63335,10.9694798 6.62816,14.9439698 2.09737,1.66892 2.56769,2.61825 3.40658,6.876 0.55331,2.80828 0.75441,3.38893 1.35159,3.90261 0.8139,0.70009 2.12644,0.8028 2.36354,0.18494 0.0883,-0.23018 0.16059,-0.86841 0.16059,-1.41828 0,-3.40165 0.80633,-4.77779 2.79946,-4.77779 0.82457,0 1.34508,0.17699 1.88214,0.63998 0.71557,0.61687 0.74329,0.73384 0.76831,3.24114 0.0143,1.43065 0.044,2.69047 0.0661,2.79961 0.0221,0.10914 0.7384,0.19844 1.59174,0.19844 h 1.55153 z m -5.00148,-10.75327 c -0.27128,-0.15183 -0.38651,-0.68472 -0.38651,-1.78758 0,-1.44688 0.11673,-1.75909 1.47465,-3.94394 1.46787,-2.3617498 2.19679,-2.9721098 2.87614,-2.4082998 0.19616,0.16281 0.96435,1.31281 1.70709,2.5555798 1.21383,2.03101 1.35044,2.41655 1.35044,3.81129 0,0.95285 -0.12764,1.63284 -0.33073,1.76194 -0.43816,0.27853 -6.19612,0.288 -6.69108,0.011 z m -8.68457,-7.7054498 c -2.11079,-0.78527 -3.57031,-2.89046 -3.806,-5.48976 -0.291,-3.20916003 1.16092,-5.60654 3.88385,-6.41295 3.72572,-1.1034 7.24998,0.0818 8.51315,2.86296997 0.66057,1.45438 0.66243,4.40355003 0.004,5.83955003 -0.55801,1.21643 -1.65129,2.37791 -2.80469,2.97966 -1.1036,0.57577 -4.48858,0.7047 -5.79001,0.22053 z m 18.48451,-0.007 c -2.34441,-0.85729 -4.05831,-4.0101 -3.75859,-6.9141 0.34058,-3.2999 2.19847,-5.03174 5.71414,-5.32648 4.53539,-0.38023 7.18065,1.90613 7.16676,6.19441 -0.009,2.70144 -1.14348,4.70944 -3.29597,5.83243 -1.11226,0.58028 -4.48555,0.70404 -5.82634,0.21374 z"
       style="fill:#0c4e4e;fill-opacity:1;stroke-width:0.264583"
       id="path2015" /></g></svg>
