<?xml version="1.0" encoding="UTF-8" standalone="no"?>
<!-- Created with Inkscape (http://www.inkscape.org/) -->

<svg
   width="100.46614mm"
   height="120.92134mm"
   viewBox="0 0 100.46614 120.92134"
   version="1.1"
   id="svg5"
   xml:space="preserve"
   xmlns:inkscape="http://www.inkscape.org/namespaces/inkscape"
   xmlns:sodipodi="http://sodipodi.sourceforge.net/DTD/sodipodi-0.dtd"
   xmlns="http://www.w3.org/2000/svg"
   xmlns:svg="http://www.w3.org/2000/svg"><sodipodi:namedview
     id="namedview7"
     pagecolor="#505050"
     bordercolor="#ffffff"
     borderopacity="1"
     inkscape:showpageshadow="0"
     inkscape:pageopacity="0"
     inkscape:pagecheckerboard="1"
     inkscape:deskcolor="#505050"
     inkscape:document-units="mm"
     showgrid="false" /><defs
     id="defs2" /><g
     inkscape:label="Camada 1"
     inkscape:groupmode="layer"
     id="layer1"
     transform="translate(-16.799523,-95.396375)"><path
       style="fill:#0c4e4e;fill-opacity:1;stroke-width:0.264583"
       d="m 66.143921,216.21928 c -0.806947,-0.23045 -8.317444,-4.2873 -11.822961,-6.38627 -18.021725,-10.79068 -28.722451,-22.01269 -34.112406,-35.7742 -1.279554,-3.26693 -2.387706,-7.23766 -2.953591,-10.58333 -0.38249,-2.26139 -0.640125,-47.58025 -0.290043,-51.01943 0.232407,-2.28314 0.317466,-2.53669 1.133426,-3.37855 1.149742,-1.18623 1.901115,-1.34725 7.118449,-1.52552 13.514823,-0.46177 28.324986,-4.61801 38.761456,-10.877784 2.905125,-1.742488 3.529206,-1.725367 6.916727,0.189748 5.232569,2.958198 14.586944,6.523886 21.340743,8.134636 6.338141,1.51162 14.596349,2.64129 19.350139,2.64699 3.05846,0.004 4.36227,0.56927 5.17306,2.24413 0.55718,1.15099 0.55725,1.15511 0.45393,26.90545 -0.11262,28.06535 -0.0401,26.66152 -1.67912,32.50116 -3.5019,12.47678 -10.65068,22.38731 -23.413037,32.45806 -4.617035,3.6433 -11.712797,8.11461 -19.117986,12.04699 -4.278006,2.27175 -5.662086,2.75968 -6.858786,2.41792 z m 6.309153,-9.83148 c 2.760409,-1.57333 6.388145,-3.73066 8.061635,-4.79407 11.371672,-7.22607 19.907031,-15.52153 24.519921,-23.83075 2.21795,-3.99521 4.74782,-12.06037 5.35311,-17.06563 0.18609,-1.53874 0.28824,-10.15575 0.28872,-24.35503 l 7.5e-4,-21.97379 -4.5765,-0.32165 c -7.966917,-0.55993 -14.410327,-1.71496 -21.220377,-3.80391 -6.470872,-1.98491 -12.749614,-4.50562 -16.087613,-6.45865 -0.844539,-0.49413 -1.627888,-0.89842 -1.740775,-0.89842 -0.112885,0 -1.129279,0.52658 -2.258656,1.17019 -4.006098,2.28297 -13.055969,5.85135 -18.436147,7.2694 -5.782079,1.52398 -12.67076,2.55273 -19.089827,2.85084 l -3.63802,0.16896 v 23.09646 c 0,22.04738 0.02416,23.22167 0.532024,25.85333 1.018704,5.2788 3.181175,11.15633 5.731303,15.5775 3.910412,6.7795 11.586085,14.41451 20.59188,20.48279 3.991734,2.68971 16.081477,9.85227 16.676906,9.88022 0.150008,0.007 2.531258,-1.27447 5.291666,-2.84779 z M 38.154358,175.31031 c -1.310225,-0.87529 -1.824164,-2.09149 -1.824654,-4.31788 -2.64e-4,-1.69489 -0.0585,-1.90223 -0.602893,-2.15028 -1.178414,-0.53692 -2.392447,-1.79228 -3.004616,-3.1069 -0.612867,-1.31613 -0.620945,-1.44898 -0.612037,-10.06498 0.0097,-9.40645 0.06578,-9.86216 1.433574,-11.65543 0.393803,-0.51631 1.282959,-1.25528 1.975905,-1.64216 1.257377,-0.70202 1.266457,-0.71724 4.532874,-7.59355 2.923857,-6.15517 3.429219,-7.0478 4.737766,-8.36843 1.047853,-1.05754 1.909202,-1.6446 3.026084,-2.06248 1.541116,-0.57661 1.722306,-0.58315 14.020966,-0.50605 l 12.459674,0.0781 1.39183,0.62909 c 2.664258,1.2042 3.784091,2.79514 7.295927,10.36533 1.71782,3.70296 3.433807,7.05895 3.813307,7.45775 0.686403,0.72132 0.691076,0.75578 0.896943,6.61459 0.113821,3.23922 0.325567,6.42527 0.470551,7.08011 0.472299,2.13325 0.329488,4.98074 -0.378095,7.53877 -0.552373,1.99691 -0.658172,2.9582 -0.658172,5.98014 0,3.30306 -0.04966,3.67508 -0.600586,4.49978 -0.948709,1.42013 -2.046507,1.82424 -4.955664,1.82424 -2.909157,0 -4.006956,-0.40411 -4.955664,-1.82424 -0.49707,-0.74407 -0.600586,-1.2571 -0.600586,-2.97656 v -2.07754 H 61.729293 47.441794 l -5.3e-4,1.91823 c -5.29e-4,2.27161 -0.505886,3.47935 -1.824654,4.36035 -0.794734,0.53099 -1.227068,0.60058 -3.731066,0.60058 -2.503998,0 -2.936333,-0.0696 -3.731186,-0.60058 z m 8.037896,-15.29033 c 1.132996,-0.31463 2.688018,-1.57427 3.224747,-2.61219 1.777873,-3.43803 -0.739744,-7.49667 -4.631558,-7.46653 -2.911893,0.0226 -5.016566,2.14862 -5.016566,5.06755 0,2.25569 1.31358,4.18024 3.348352,4.90573 1.245511,0.44409 1.788528,0.46271 3.075025,0.10544 z m 34.520961,-0.54531 c 2.792404,-1.35178 3.604937,-5.24567 1.576649,-7.55576 -1.600517,-1.82289 -3.851732,-2.37287 -5.876197,-1.43557 -1.953887,0.90462 -3.042708,2.52404 -3.042708,4.52547 0,2.00143 1.088821,3.62085 3.042708,4.52547 1.40026,0.6483 2.879574,0.62779 4.299548,-0.0596 z m -1.786006,-18.44951 c 0,-0.42196 -4.04871,-9.1653 -4.472027,-9.6575 -1.041493,-1.21097 -1.237986,-1.22968 -12.915315,-1.22968 -10.272929,0 -11.129509,0.0351 -11.985534,0.4914 -0.812308,0.43299 -1.196663,1.06997 -3.232873,5.35782 -1.271026,2.67652 -2.312823,4.9557 -2.315104,5.06484 -0.0023,0.10914 7.853979,0.19844 17.458354,0.19844 9.604374,0 17.462499,-0.10139 17.462499,-0.22532 z m 13.754205,29.1035 c -1.892308,-1.00692 -2.683722,-3.86679 -1.622634,-5.86356 1.521171,-2.86257 5.726572,-2.85073 7.191237,0.0202 1.900693,3.72567 -1.951585,7.76799 -5.568603,5.84331 z M 91.742855,156.3145 90.96575,155.50353 90.88564,140.63794 c -0.05558,-10.31289 0.0096,-15.17333 0.21285,-15.87043 0.41783,-1.43314 1.515488,-2.03562 3.710992,-2.03688 1.1698,-7.9e-4 1.925826,0.13823 2.343055,0.43047 1.338204,0.93731 1.353838,1.12923 1.353838,16.62032 0,12.54612 -0.05456,14.5593 -0.419309,15.47089 -0.601752,1.50393 -1.315905,1.87317 -3.622923,1.87317 -1.823969,0 -1.992231,-0.0502 -2.721288,-0.81098 z"
       id="path302"
       sodipodi:nodetypes="sssssssssscssssssssssscssssssscssssssscssssssssscssssssssssscccccsssscsssssssssssssssssscssccscsscsssss" /></g></svg>
