<svg width="197" height="48" viewBox="0 0 197 48" fill="none" xmlns="http://www.w3.org/2000/svg">
<path d="M12.541 30.5555C13.121 30.5555 13.6347 30.5414 14.0823 30.5153C14.5298 30.4893 14.9031 30.4411 15.2021 30.3708V26.2868C15.0255 26.1985 14.7405 26.1242 14.3452 26.062C13.9498 25.9998 13.4722 25.9697 12.9102 25.9697C12.541 25.9697 12.1516 25.9958 11.7382 26.048C11.3248 26.1002 10.9475 26.2105 10.6063 26.3771C10.2631 26.5437 9.97817 26.7725 9.74938 27.0615C9.52059 27.3505 9.4062 27.7338 9.4062 28.2074C9.4062 29.0864 9.68717 29.6965 10.2491 30.0397C10.811 30.3829 11.5757 30.5535 12.541 30.5535V30.5555ZM12.3303 18.2793C13.3136 18.2793 14.1445 18.4057 14.8188 18.6606C15.4951 18.9155 16.039 19.2747 16.4524 19.7403C16.8658 20.2059 17.1589 20.7598 17.3355 21.4C17.5121 22.0402 17.5984 22.7486 17.5984 23.5193V32.0807C17.3876 32.1168 17.0926 32.165 16.7153 32.2252C16.338 32.2874 15.9126 32.3436 15.4369 32.3958C14.9633 32.448 14.4495 32.4962 13.8956 32.5403C13.3417 32.5845 12.7938 32.6065 12.25 32.6065C11.4773 32.6065 10.7649 32.5283 10.1166 32.3697C9.46641 32.2112 8.90448 31.9623 8.43085 31.6191C7.95722 31.276 7.58795 30.8244 7.32505 30.2625C7.06214 29.7005 6.92969 29.0242 6.92969 28.2335C6.92969 27.4428 7.08422 26.8287 7.39127 26.2848C7.69833 25.7409 8.11576 25.3014 8.64358 24.9683C9.17139 24.6351 9.7855 24.3883 10.4879 24.2297C11.1903 24.0712 11.9289 23.9929 12.7015 23.9929C12.9484 23.9929 13.2033 24.007 13.4662 24.0331C13.7291 24.0592 13.9799 24.0953 14.2167 24.1374C14.4536 24.1816 14.6603 24.2197 14.8349 24.2558C15.0115 24.292 15.1339 24.318 15.2041 24.3341V23.6497C15.2041 23.2464 15.16 22.847 15.0717 22.4516C14.9834 22.0563 14.8248 21.7051 14.598 21.398C14.3693 21.0909 14.0582 20.8441 13.6628 20.6595C13.2675 20.4748 12.7537 20.3825 12.1215 20.3825C11.3148 20.3825 10.6063 20.4387 10.0002 20.5531C9.39416 20.6675 8.94261 20.7859 8.64358 20.9083L8.35459 18.8793C8.67168 18.7389 9.19748 18.6024 9.93602 18.4719C10.6726 18.3395 11.4733 18.2753 12.3343 18.2753L12.3303 18.2793Z" fill="white"/>
<path d="M25.5166 18.3315C24.3044 18.3315 23.2407 18.4078 22.3176 18.5664C21.3964 18.7249 20.6498 18.8734 20.0879 19.0139V32.3196H22.5383V20.7539C22.6086 20.7358 22.751 20.7097 22.9618 20.6736C23.1725 20.6395 23.4033 20.6114 23.6582 20.5833C23.913 20.5572 24.182 20.5351 24.4629 20.5171C24.7439 20.499 25.0068 20.489 25.2536 20.489C25.8336 20.489 26.3113 20.5813 26.6886 20.7659C27.0659 20.9505 27.3669 21.2355 27.5877 21.6229C27.8064 22.0102 27.961 22.4918 28.0493 23.0718C28.1376 23.6518 28.1817 24.3422 28.1817 25.151V32.3196H30.6321V24.6252C30.6321 24.0271 30.594 23.4572 30.5238 22.9133C30.4535 22.3694 30.3492 21.8697 30.2087 21.4121C30.4013 21.2355 30.7646 21.0388 31.3004 20.8201C31.8363 20.6013 32.5206 20.491 33.3475 20.491C33.9455 20.491 34.4272 20.5833 34.8065 20.7679C35.1838 20.9526 35.4848 21.2375 35.7056 21.6249C35.9243 22.0122 36.0728 22.4939 36.1531 23.0738C36.2314 23.6538 36.2715 24.3442 36.2715 25.153V29.1648H36.2675V32.2414C36.2675 33.5398 36.5806 34.4951 37.2128 35.1112C37.8449 35.7253 38.9206 36.0545 40.4298 36.0906L40.773 34.0355C40.3857 33.9833 40.0585 33.9171 39.7936 33.8389C39.5307 33.7606 39.322 33.6402 39.1635 33.4816C39.0049 33.3231 38.8905 33.1144 38.8203 32.8515C38.7681 32.6548 38.734 32.418 38.7219 32.141V24.6292C38.7219 23.7161 38.6557 22.8772 38.5253 22.1025C38.3928 21.3298 38.1399 20.6616 37.7626 20.0996C37.3854 19.5377 36.8595 19.1042 36.1912 18.7971C35.523 18.4901 34.668 18.3356 33.6144 18.3356C33.0705 18.3356 32.5588 18.3897 32.0851 18.5041C31.6115 18.6185 31.178 18.749 30.7907 18.8995C30.4034 19.048 30.0802 19.2025 29.8173 19.3611C29.5544 19.5196 29.3618 19.6441 29.2394 19.7324C28.836 19.2748 28.3362 18.9256 27.7382 18.6888C27.1401 18.452 26.4016 18.3356 25.5226 18.3356L25.5166 18.3315Z" fill="white"/>
<path d="M40.4629 25.4961C40.4629 24.2839 40.6375 23.2263 40.9888 22.3212C41.34 21.4161 41.8056 20.6655 42.3856 20.0695C42.9655 19.4714 43.6318 19.0239 44.3884 18.7268C45.143 18.4278 45.9157 18.2793 46.7064 18.2793C48.5507 18.2793 49.9636 18.8553 50.947 20.0052C51.9304 21.1552 52.4221 22.9072 52.4221 25.2613C52.4221 25.3677 52.4221 25.5021 52.4221 25.6707C52.4221 25.8373 52.414 25.9918 52.396 26.1323H43.0177C43.1241 27.5552 43.5355 28.6349 44.256 29.3714C44.9765 30.108 46.1003 30.4772 47.6276 30.4772C48.4885 30.4772 49.213 30.403 49.801 30.2525C50.3891 30.1039 50.8326 29.9574 51.1316 29.817L51.4748 31.872C51.1758 32.0306 50.654 32.1971 49.9074 32.3717C49.1608 32.5463 48.3139 32.6346 47.3647 32.6346C46.1706 32.6346 45.139 32.454 44.27 32.0948C43.401 31.7356 42.6846 31.2378 42.1226 30.6057C41.5607 29.9735 41.1433 29.2229 40.8703 28.3539C40.5974 27.4849 40.4609 26.5317 40.4609 25.4961H40.4629ZM49.8673 24.1535C49.8853 23.0477 49.6084 22.1386 49.0384 21.4261C48.4685 20.7137 47.6818 20.3584 46.6803 20.3584C46.1184 20.3584 45.6227 20.4688 45.1912 20.6876C44.7617 20.9083 44.3965 21.1933 44.0974 21.5445C43.7984 21.8957 43.5656 22.2991 43.399 22.7567C43.2325 23.2143 43.1221 23.6779 43.0699 24.1535H49.8673Z" fill="white"/>
<path d="M60.3441 32.6367C59.2383 32.6367 58.267 32.4601 57.4321 32.1089C56.5972 31.7577 55.8948 31.266 55.3248 30.6338C54.7549 30.0017 54.3274 29.2511 54.0464 28.3821C53.7655 27.5131 53.625 26.5518 53.625 25.4982C53.625 24.4446 53.7795 23.4792 54.0866 22.6002C54.3936 21.7212 54.8291 20.9626 55.3911 20.3224C55.953 19.6822 56.6414 19.1805 57.4582 18.8212C58.275 18.462 59.1841 18.2814 60.1856 18.2814C60.7997 18.2814 61.4158 18.3336 62.0299 18.4399C62.644 18.5443 63.232 18.7129 63.794 18.9396L63.24 21.0208C62.8708 20.8442 62.4453 20.7037 61.9617 20.5993C61.478 20.495 60.9642 20.4408 60.4204 20.4408C59.0496 20.4408 58 20.8703 57.2715 21.7312C56.543 22.5922 56.1778 23.8465 56.1778 25.4982C56.1778 26.2347 56.2621 26.911 56.4286 27.5272C56.5952 28.1413 56.8581 28.6691 57.2194 29.1086C57.5786 29.5481 58.0402 29.8853 58.6021 30.1221C59.164 30.3589 59.8484 30.4773 60.6572 30.4773C61.3074 30.4773 61.8954 30.4151 62.4212 30.2927C62.949 30.1702 63.3605 30.0378 63.6595 29.8973L64.0027 31.9524C63.8622 32.0407 63.6595 32.123 63.3966 32.2032C63.1337 32.2815 62.8347 32.3517 62.5015 32.414C62.1684 32.4762 61.8131 32.5283 61.4338 32.5725C61.0565 32.6167 60.6913 32.6387 60.3401 32.6387L60.3441 32.6367Z" fill="white"/>
<path d="M67.5325 32.3196H65.0821V18.6225H67.5325V32.3216V32.3196ZM66.2963 16.144C65.8568 16.144 65.4835 15.9995 65.1764 15.7085C64.8694 15.4195 64.7148 15.0282 64.7148 14.5365C64.7148 14.0448 64.8694 13.6534 65.1764 13.3645C65.4835 13.0755 65.8568 12.929 66.2963 12.929C66.7358 12.929 67.1091 13.0735 67.4161 13.3645C67.7232 13.6534 67.8777 14.0448 67.8777 14.5365C67.8777 15.0282 67.7232 15.4195 67.4161 15.7085C67.1091 15.9975 66.7358 16.144 66.2963 16.144Z" fill="white"/>
<path d="M76.1742 32.6367C75.0684 32.6367 74.097 32.4601 73.2622 32.1089C72.4273 31.7577 71.7249 31.266 71.1549 30.6338C70.585 30.0017 70.1575 29.2511 69.8765 28.3821C69.5956 27.5131 69.4551 26.5518 69.4551 25.4982C69.4551 24.4446 69.6096 23.4792 69.9167 22.6002C70.2237 21.7212 70.6592 20.9626 71.2212 20.3224C71.7831 19.6822 72.4714 19.1805 73.2883 18.8212C74.1051 18.462 75.0142 18.2814 76.0156 18.2814C76.6297 18.2814 77.2459 18.3336 77.86 18.4399C78.4741 18.5443 79.0621 18.7129 79.624 18.9396L79.0701 21.0208C78.7009 20.8442 78.2754 20.7037 77.7917 20.5993C77.3081 20.495 76.7943 20.4408 76.2504 20.4408C74.8797 20.4408 73.8301 20.8703 73.1016 21.7312C72.3731 22.5922 72.0079 23.8465 72.0079 25.4982C72.0079 26.2347 72.0921 26.911 72.2587 27.5272C72.4253 28.1413 72.6882 28.6691 73.0494 29.1086C73.4087 29.5481 73.8703 29.8853 74.4322 30.1221C74.9941 30.3589 75.6785 30.4773 76.4873 30.4773C77.1375 30.4773 77.7255 30.4151 78.2513 30.2927C78.7791 30.1702 79.1905 30.0378 79.4896 29.8973L79.8328 31.9524C79.6923 32.0407 79.4896 32.123 79.2267 32.2032C78.9638 32.2815 78.6647 32.3517 78.3316 32.414C77.9984 32.4762 77.6432 32.5283 77.2639 32.5725C76.8866 32.6167 76.5214 32.6387 76.1702 32.6387L76.1742 32.6367Z" fill="white"/>
<path d="M85.0217 32.5845C83.5105 32.5484 82.4409 32.2233 81.8067 31.6091C81.1745 30.995 80.8574 30.0377 80.8574 28.7373V12.2988L83.3078 11.8773V28.3419C83.3078 28.7453 83.342 29.0805 83.4122 29.3434C83.4824 29.6063 83.5968 29.817 83.7554 29.9755C83.9139 30.1341 84.1247 30.2525 84.3876 30.3308C84.6505 30.409 84.9756 30.4753 85.3629 30.5294L85.0197 32.5845H85.0217Z" fill="white"/>
<path d="M98.0427 26.8207C97.6012 28.4463 99.5198 27.7158 98.6388 29.1527C97.7577 30.5896 97.539 28.5486 96.2907 29.6765C95.0424 30.8044 97.0493 31.2278 95.5321 31.9603C94.0149 32.6929 94.934 30.8566 93.2723 31.1315C91.6106 31.4064 93.0716 32.8474 91.3999 32.6427C89.7281 32.438 91.4942 31.3924 89.9469 30.7241C88.3996 30.0558 88.8511 32.0587 87.5547 30.983C86.2582 29.9073 88.3093 29.9815 87.37 28.5827C86.4288 27.1859 85.7264 29.1126 85.2166 27.507C84.7089 25.9015 86.3927 27.0735 86.3586 25.3878C86.3224 23.704 84.6888 24.9442 85.1303 23.3186C85.5719 21.6931 86.3545 23.5896 87.2356 22.1526C88.1166 20.7177 86.0696 20.8762 87.3199 19.7484C88.5702 18.6205 88.2029 20.6374 89.7221 19.9069C91.2393 19.1744 89.4311 18.2031 91.0928 17.9301C92.7545 17.6552 91.3557 19.1563 93.0275 19.361C94.6992 19.5657 93.7038 17.7716 95.2511 18.4379C96.7984 19.1042 94.8096 19.6119 96.1041 20.6876C97.4005 21.7633 97.533 19.7163 98.4722 21.1131C99.4134 22.5099 97.4647 21.8616 97.9745 23.4672C98.4822 25.0727 99.7024 23.421 99.7366 25.1068C99.7727 26.7906 98.4842 25.1931 98.0447 26.8187L98.0427 26.8207Z" fill="white"/>
<path d="M91.8125 29.0143C91.5656 28.7213 90.9053 28.0309 90.3454 27.479C88.8623 26.018 88.5834 25.6467 88.4288 24.9262C88.2603 24.1455 88.4589 23.2123 88.8964 22.7066C89.2978 22.247 90.1909 21.9038 90.7528 21.9962C91.108 22.0544 91.7081 22.3654 91.969 22.6263C92.25 22.9073 92.2781 22.9033 92.7898 22.5059C93.3859 22.0423 93.9277 21.9058 94.58 22.0544C95.5373 22.2751 96.2738 23.2485 96.2377 24.2479C96.2096 25.0125 95.8744 25.7892 95.3165 26.3893C95.17 26.5458 94.6382 27.0676 94.1365 27.5472C93.6327 28.0269 93.0166 28.6691 92.7657 28.9741C92.5149 29.2792 92.2981 29.5321 92.2861 29.5381C92.274 29.5441 92.0613 29.3073 91.8145 29.0163L91.8125 29.0143Z" fill="#FF0000"/>
<path d="M115.682 30.504C115.858 30.52 116.09 30.536 116.378 30.552C116.666 30.552 117.058 30.552 117.554 30.552C119.586 30.552 121.098 30.04 122.09 29.016C123.098 27.976 123.602 26.528 123.602 24.672C123.602 22.784 123.114 21.336 122.138 20.328C121.162 19.32 119.65 18.816 117.602 18.816C116.706 18.816 116.066 18.84 115.682 18.888V30.504ZM126.77 24.672C126.77 26.112 126.546 27.368 126.098 28.44C125.65 29.496 125.01 30.384 124.178 31.104C123.362 31.808 122.37 32.336 121.202 32.688C120.05 33.024 118.77 33.192 117.362 33.192C116.69 33.192 115.93 33.16 115.082 33.096C114.234 33.048 113.426 32.936 112.658 32.76V16.608C113.426 16.432 114.242 16.32 115.106 16.272C115.97 16.224 116.738 16.2 117.41 16.2C118.802 16.2 120.074 16.368 121.226 16.704C122.378 17.024 123.362 17.536 124.178 18.24C125.01 18.928 125.65 19.808 126.098 20.88C126.546 21.936 126.77 23.2 126.77 24.672ZM134.063 30.96C134.959 30.96 135.639 30.912 136.103 30.816V27.6C135.943 27.552 135.711 27.504 135.407 27.456C135.103 27.408 134.767 27.384 134.399 27.384C134.079 27.384 133.751 27.408 133.415 27.456C133.095 27.504 132.799 27.592 132.527 27.72C132.271 27.848 132.063 28.032 131.903 28.272C131.743 28.496 131.663 28.784 131.663 29.136C131.663 29.824 131.879 30.304 132.311 30.576C132.743 30.832 133.327 30.96 134.063 30.96ZM133.823 20.136C134.783 20.136 135.591 20.256 136.247 20.496C136.903 20.736 137.423 21.072 137.807 21.504C138.207 21.936 138.487 22.464 138.647 23.088C138.823 23.696 138.911 24.368 138.911 25.104V32.712C138.463 32.808 137.783 32.92 136.871 33.048C135.975 33.192 134.959 33.264 133.823 33.264C133.071 33.264 132.383 33.192 131.759 33.048C131.135 32.904 130.599 32.672 130.151 32.352C129.719 32.032 129.375 31.616 129.119 31.104C128.879 30.592 128.759 29.96 128.759 29.208C128.759 28.488 128.895 27.88 129.167 27.384C129.455 26.888 129.839 26.488 130.319 26.184C130.799 25.864 131.351 25.64 131.975 25.512C132.615 25.368 133.279 25.296 133.967 25.296C134.287 25.296 134.623 25.32 134.975 25.368C135.327 25.4 135.703 25.464 136.103 25.56V25.08C136.103 24.744 136.063 24.424 135.983 24.12C135.903 23.816 135.759 23.552 135.551 23.328C135.359 23.088 135.095 22.904 134.759 22.776C134.439 22.648 134.031 22.584 133.535 22.584C132.863 22.584 132.247 22.632 131.687 22.728C131.127 22.824 130.671 22.936 130.319 23.064L129.959 20.712C130.327 20.584 130.863 20.456 131.567 20.328C132.271 20.2 133.023 20.136 133.823 20.136ZM144.747 26.688C144.747 27.968 145.051 28.976 145.659 29.712C146.267 30.432 147.107 30.792 148.179 30.792C148.643 30.792 149.035 30.776 149.355 30.744C149.691 30.696 149.963 30.648 150.171 30.6V23.4C149.915 23.224 149.571 23.064 149.139 22.92C148.723 22.76 148.275 22.68 147.795 22.68C146.739 22.68 145.963 23.04 145.467 23.76C144.987 24.48 144.747 25.456 144.747 26.688ZM153.075 32.616C152.499 32.792 151.771 32.952 150.891 33.096C150.027 33.24 149.115 33.312 148.155 33.312C147.163 33.312 146.275 33.16 145.491 32.856C144.707 32.552 144.035 32.12 143.475 31.56C142.931 30.984 142.507 30.296 142.203 29.496C141.915 28.68 141.771 27.768 141.771 26.76C141.771 25.768 141.891 24.872 142.131 24.072C142.387 23.256 142.755 22.56 143.235 21.984C143.715 21.408 144.299 20.968 144.987 20.664C145.675 20.344 146.467 20.184 147.363 20.184C147.971 20.184 148.507 20.256 148.971 20.4C149.435 20.544 149.835 20.704 150.171 20.88V14.856L153.075 14.376V32.616ZM168.116 26.712C168.116 27.704 167.972 28.608 167.684 29.424C167.396 30.24 166.988 30.936 166.46 31.512C165.932 32.088 165.292 32.536 164.54 32.856C163.804 33.176 162.988 33.336 162.092 33.336C161.196 33.336 160.38 33.176 159.644 32.856C158.908 32.536 158.276 32.088 157.748 31.512C157.22 30.936 156.804 30.24 156.5 29.424C156.212 28.608 156.068 27.704 156.068 26.712C156.068 25.72 156.212 24.824 156.5 24.024C156.804 23.208 157.22 22.512 157.748 21.936C158.292 21.36 158.932 20.92 159.668 20.616C160.404 20.296 161.212 20.136 162.092 20.136C162.972 20.136 163.78 20.296 164.516 20.616C165.268 20.92 165.908 21.36 166.436 21.936C166.964 22.512 167.372 23.208 167.66 24.024C167.964 24.824 168.116 25.72 168.116 26.712ZM165.14 26.712C165.14 25.464 164.868 24.48 164.324 23.76C163.796 23.024 163.052 22.656 162.092 22.656C161.132 22.656 160.38 23.024 159.836 23.76C159.308 24.48 159.044 25.464 159.044 26.712C159.044 27.976 159.308 28.976 159.836 29.712C160.38 30.448 161.132 30.816 162.092 30.816C163.052 30.816 163.796 30.448 164.324 29.712C164.868 28.976 165.14 27.976 165.14 26.712ZM174.252 30.912C175.02 30.912 175.58 30.824 175.932 30.648C176.284 30.456 176.46 30.136 176.46 29.688C176.46 29.272 176.268 28.928 175.884 28.656C175.516 28.384 174.9 28.088 174.036 27.768C173.508 27.576 173.02 27.376 172.572 27.168C172.14 26.944 171.764 26.688 171.444 26.4C171.124 26.112 170.868 25.768 170.676 25.368C170.5 24.952 170.412 24.448 170.412 23.856C170.412 22.704 170.836 21.8 171.684 21.144C172.532 20.472 173.684 20.136 175.14 20.136C175.876 20.136 176.58 20.208 177.252 20.352C177.924 20.48 178.428 20.608 178.764 20.736L178.236 23.088C177.916 22.944 177.508 22.816 177.012 22.704C176.516 22.576 175.94 22.512 175.284 22.512C174.692 22.512 174.212 22.616 173.844 22.824C173.476 23.016 173.292 23.32 173.292 23.736C173.292 23.944 173.324 24.128 173.388 24.288C173.468 24.448 173.596 24.6 173.772 24.744C173.948 24.872 174.18 25.008 174.468 25.152C174.756 25.28 175.108 25.416 175.524 25.56C176.212 25.816 176.796 26.072 177.276 26.328C177.756 26.568 178.148 26.848 178.452 27.168C178.772 27.472 179.004 27.824 179.148 28.224C179.292 28.624 179.364 29.104 179.364 29.664C179.364 30.864 178.916 31.776 178.02 32.4C177.14 33.008 175.876 33.312 174.228 33.312C173.124 33.312 172.236 33.216 171.564 33.024C170.892 32.848 170.42 32.704 170.148 32.592L170.652 30.168C171.084 30.344 171.596 30.512 172.188 30.672C172.796 30.832 173.484 30.912 174.252 30.912Z" fill="white"/>
</svg>
